<svg version="1.1" id="Layer_1" xmlns="http://www.w3.org/2000/svg" xmlns:xlink="http://www.w3.org/1999/xlink" x="0px" y="0px"
	 width="100%" viewBox="0 0 400 400" enable-background="new 0 0 400 400" xml:space="preserve">
<path fill="#6A6AF0" opacity="1.000000" stroke="none" 
	d="
M1.000000,100.000000 
	C1.000000,67.023994 1.000000,34.047985 1.000000,1.035989 
	C134.212387,1.035989 267.424805,1.035989 401.000000,1.035989 
	C401.000000,35.020035 401.000000,69.041359 400.535767,103.531342 
	C390.341125,102.597328 380.603485,101.240868 370.891174,99.722519 
	C369.888611,99.565781 369.108582,98.033546 368.099945,97.857513 
	C366.120636,97.512085 363.992004,97.344627 362.037903,97.708672 
	C359.741577,98.136459 357.579865,99.838707 355.333984,99.891525 
	C344.844360,100.138237 334.345154,99.939484 323.850830,100.043129 
	C319.555084,100.085556 315.311127,106.139771 316.599304,109.771469 
	C317.907104,113.458656 318.876160,117.265999 319.696747,120.883736 
	C318.565918,120.520142 317.731934,120.293549 316.931030,120.040253 
	C316.964172,120.013565 316.934937,120.093468 316.882080,119.793999 
	C316.414948,119.079506 316.000671,118.664474 315.608276,118.281494 
	C315.630127,118.313553 315.558136,118.342468 315.640625,117.965530 
	C313.734985,112.612076 311.463135,107.893112 305.614746,106.393402 
	C305.631073,106.350891 305.712494,106.391701 305.613647,106.135132 
	C305.231110,105.656067 304.947388,105.433563 304.694916,105.243515 
	C304.726166,105.275955 304.653870,105.329704 304.671997,104.969933 
	C302.578369,100.889351 300.599945,97.014435 295.444031,96.696594 
	C295.344971,96.694557 295.278290,96.507904 295.421265,96.130585 
	C294.986786,94.508499 294.751984,92.746628 293.777588,92.101051 
	C286.233246,87.102768 278.622467,82.192070 270.853699,77.553360 
	C268.686798,76.259506 265.922180,75.966743 263.313385,75.223312 
	C263.195007,75.231895 263.030640,75.060638 262.815369,74.850754 
	C262.043365,74.444412 261.486633,74.247940 260.960693,74.031006 
	C260.991486,74.010551 260.958893,74.076889 260.849121,73.751213 
	C259.534607,72.884628 258.329834,72.343727 256.920990,71.496468 
	C254.289291,70.502792 251.861679,69.815460 249.333435,69.171524 
	C249.232803,69.214912 249.075455,69.062340 248.834747,68.852173 
	C247.982162,68.500099 247.370300,68.358192 246.833008,68.205910 
	C246.907562,68.195534 246.918716,68.345680 246.712891,68.027084 
	C244.601013,67.230293 242.694962,66.752098 240.846130,66.264984 
	C240.903366,66.256081 240.909348,66.371780 240.681976,66.065659 
	C231.336060,63.837830 222.292419,61.250950 213.074387,60.212860 
	C206.172104,59.435566 199.045166,60.653393 191.585327,61.075249 
	C189.102478,61.067650 187.052567,60.967690 184.668182,60.677536 
	C183.190002,60.340874 181.941162,59.818779 180.918472,60.104927 
	C168.041794,63.707832 155.183945,67.381126 142.372391,71.207626 
	C141.378464,71.504478 140.768005,73.085320 139.899597,74.158508 
	C139.819901,74.247643 139.582443,74.219200 139.162430,74.175179 
	C136.269485,75.583870 133.796555,77.036575 131.291107,78.493973 
	C131.258591,78.498657 131.306763,78.455696 130.913162,78.348038 
	C128.592270,78.994888 126.664474,79.748177 124.737740,80.504128 
	C116.702515,83.656784 111.655128,92.819305 101.143967,91.964371 
	C102.401466,93.944099 103.510689,95.690384 104.605408,97.500000 
	C104.590889,97.563339 104.461189,97.571419 104.100296,97.493172 
	C101.839027,98.286964 99.938637,99.159012 97.927376,99.710373 
	C92.816498,93.965179 92.626808,94.020256 87.806549,99.556709 
	C86.136719,101.474655 84.102058,103.074966 82.234039,104.820351 
	C81.706848,104.536758 81.179657,104.253166 80.652466,103.969574 
	C81.189194,101.949867 81.725922,99.930153 82.262650,97.915359 
	C82.008240,97.719673 81.743477,97.331940 81.500916,97.345360 
	C70.449959,97.956795 59.402050,98.624161 48.349949,99.212990 
	C47.268097,99.270622 45.957951,99.182861 45.104099,98.625710 
	C42.218075,96.742500 39.602501,96.913910 36.724972,98.700745 
	C35.786549,99.283455 34.258411,99.041245 33.010098,98.977699 
	C28.566435,98.751495 24.111629,98.066483 19.689888,98.250046 
	C13.446469,98.509232 7.228722,99.386795 1.000000,100.000000 
z"/>
<path fill="#8064FE" opacity="1.000000" stroke="none" 
	d="
M1.000001,369.000000 
	C1.000000,353.645782 1.000000,338.291534 1.468642,322.468658 
	C15.172711,322.000000 28.408447,321.942230 41.643497,322.013092 
	C62.946613,322.127167 84.249321,322.320831 105.552094,322.494202 
	C109.355232,322.525146 112.344948,325.261292 111.908073,328.141510 
	C111.751709,329.172302 111.908295,330.250580 111.922050,331.307190 
	C113.177193,331.246582 114.597816,331.537720 115.648834,331.043243 
	C117.241371,330.294037 118.576828,328.998444 120.355469,327.939240 
	C121.135216,327.950836 121.581001,327.958191 122.020126,328.345184 
	C122.008957,329.483215 122.004448,330.241608 121.655579,331.079224 
	C112.657066,338.200043 101.737968,335.491577 92.013878,337.931396 
	C91.417084,338.081146 90.705170,337.777618 90.047699,337.679077 
	C86.319687,337.120361 82.603180,336.189545 78.861794,336.075958 
	C70.704353,335.828369 62.534050,335.958801 54.369522,336.012848 
	C51.008064,336.035126 48.605972,335.198395 47.839394,331.360016 
	C47.600079,330.161743 45.835365,329.268158 44.768929,328.235077 
	C43.858734,329.255707 42.364204,330.166382 42.147568,331.317535 
	C41.489632,334.813690 39.441246,335.982178 36.183399,336.080322 
	C35.241665,336.108734 34.320240,336.811157 33.389503,337.204559 
	C33.387459,337.726746 33.385410,338.248932 33.383362,338.771118 
	C35.808620,339.180573 38.232414,339.935211 40.659363,339.945496 
	C62.487591,340.038055 84.316452,339.970764 106.144928,340.027649 
	C109.943985,340.037537 113.739914,340.500427 117.541191,340.592041 
	C122.663101,340.715607 127.795471,340.531494 132.910965,340.758484 
	C137.970551,340.983002 143.014709,341.554565 148.351379,342.152710 
	C150.091583,342.856476 151.546036,343.381409 153.248474,343.936737 
	C153.496460,343.967133 153.992691,344.025513 154.084488,344.362732 
	C157.557968,347.924255 159.990845,347.181976 163.002029,342.003296 
	C163.000000,342.000000 163.004868,342.004242 163.337814,341.976074 
	C164.438751,341.284882 165.206726,340.621887 166.097931,339.667206 
	C166.167038,337.922485 166.112900,336.469452 166.291504,334.936829 
	C166.371567,334.231903 166.218903,333.606567 166.057770,332.513824 
	C166.039886,325.454773 166.298096,318.846252 165.883240,312.280212 
	C165.727203,309.810608 164.010010,307.439606 162.664948,304.874176 
	C161.196701,304.457855 160.045120,304.262665 158.943726,303.910492 
	C155.798721,302.904877 154.697906,297.822845 157.121231,295.199341 
	C157.458710,295.633667 157.690643,295.842255 158.260437,296.250122 
	C160.376617,296.656891 162.186172,296.829681 164.059357,297.334534 
	C164.663269,298.913239 165.203552,300.159882 166.213760,302.490784 
	C167.269943,300.206787 168.551559,298.664062 168.196518,298.010803 
	C165.052750,292.226471 168.544785,290.818848 173.090210,290.366913 
	C173.985291,285.791382 170.406296,285.384521 167.984894,283.623169 
	C168.647049,281.835480 169.302658,280.410156 170.303711,279.024170 
	C171.850189,280.017059 173.051239,280.970612 174.787369,282.348969 
	C174.610168,277.261719 177.497696,277.568939 181.141876,277.760895 
	C184.794754,277.953278 188.894638,277.657684 192.126266,276.142273 
	C198.373535,273.212616 204.086639,272.838440 210.035217,276.453278 
	C211.262024,277.198761 212.740875,277.770813 214.156525,277.919983 
	C218.777924,278.406921 223.423813,278.661438 228.054138,279.252167 
	C228.048004,279.498962 228.031448,279.992401 227.933884,280.102478 
	C227.705780,280.507996 227.769745,280.763458 228.018311,280.980469 
	C228.008392,280.981995 228.035080,280.967743 228.063477,281.328064 
	C228.921310,283.695648 230.592529,285.786987 230.402191,287.692352 
	C230.024429,291.473816 231.925797,291.965088 234.778915,292.491241 
	C234.898270,307.968353 234.980576,322.979980 234.727890,338.132355 
	C231.477829,337.872437 228.562759,337.471771 226.147736,337.139832 
	C226.147736,340.789032 226.147736,344.517548 226.147736,348.486664 
	C230.515778,349.308685 232.287155,340.144562 238.468872,345.029144 
	C236.813141,347.403198 235.197998,349.719086 233.022552,352.838348 
	C239.377380,350.397186 244.753723,348.331909 250.297867,346.202148 
	C249.088165,344.652130 248.014114,343.275879 246.892303,341.594574 
	C246.801147,341.087433 246.757721,340.885345 246.734650,340.651001 
	C246.755020,340.618744 246.828003,340.640961 247.150177,340.852966 
	C249.461716,340.818085 251.599579,340.953827 253.411835,340.250488 
	C258.322876,338.344604 263.095703,336.082581 268.170227,334.170959 
	C272.004669,334.016724 275.733490,334.149017 279.147278,333.175903 
	C284.531128,331.641205 286.406891,326.794434 288.226562,321.965759 
	C288.451935,321.958801 288.902802,321.951630 289.279694,321.891785 
	C293.779907,321.256775 297.809570,317.427399 302.134064,321.585571 
	C302.528717,321.965027 304.557281,321.370483 305.097687,320.667511 
	C305.630310,319.974670 305.392975,318.542633 305.215393,317.481476 
	C304.834808,315.207336 304.274902,312.963196 303.788452,310.706787 
	C307.773224,309.944519 308.481171,302.751617 314.363953,305.381165 
	C315.128876,305.723053 317.550537,304.469482 317.710327,303.659943 
	C318.198883,301.184845 317.958344,298.565826 318.212524,295.811096 
	C318.947876,295.409668 319.472107,295.199951 320.186340,295.290222 
	C322.995605,296.725006 325.591797,298.771484 328.238159,298.838562 
	C340.453918,299.148132 352.684967,299.002014 364.908020,298.835693 
	C376.940247,298.671997 388.969452,298.287567 401.000000,298.000000 
	C401.000000,317.687561 401.000000,337.375122 400.578308,357.531311 
	C397.607178,357.999939 395.057709,357.999939 392.043396,357.999939 
	C392.575562,359.202759 393.034241,359.893005 393.183594,360.644653 
	C393.568115,362.580139 393.815643,364.542816 394.117920,366.494629 
	C391.261139,366.847565 388.358490,367.619293 385.573792,367.314270 
	C384.664368,367.214661 383.432434,364.308624 383.439148,362.690613 
	C383.458069,358.126587 381.952911,356.861084 377.847137,359.254120 
	C374.389404,361.269379 371.458466,361.348114 368.102417,359.196136 
	C365.484985,357.517761 362.824768,357.378143 360.694275,360.409546 
	C358.447601,363.606293 355.899658,363.749634 353.410034,360.596649 
	C350.591522,357.027191 347.641968,356.885132 344.777496,360.405273 
	C342.062500,363.741699 339.735687,363.510010 337.105499,360.268646 
	C334.434998,356.977661 331.451233,357.061432 328.807465,360.361176 
	C326.141174,363.689087 323.786438,363.586914 321.141693,360.307220 
	C318.482269,357.009308 315.668854,357.179321 312.795746,360.283020 
	C309.364258,363.989868 305.600128,363.893768 302.159119,360.191681 
	C298.047241,355.767822 296.063538,355.804840 291.692627,360.386932 
	C288.340576,363.900940 276.659668,364.472565 273.727844,360.816254 
	C271.068512,357.499786 267.970306,357.790344 264.063843,357.916412 
	C264.548004,359.099152 264.956970,359.798553 265.118347,360.551056 
	C265.533905,362.488953 265.839813,364.450348 266.189545,366.402405 
	C263.345856,366.798309 260.442627,367.672058 257.690979,367.329163 
	C256.736633,367.210236 255.564194,364.086731 255.529007,362.314972 
	C255.450653,358.367249 253.919556,356.929382 250.402634,358.983643 
	C246.654709,361.172821 243.457489,361.467041 239.753082,359.032471 
	C237.316986,357.431458 234.743881,357.528107 232.767883,360.318451 
	C230.305634,363.795471 227.796707,363.599487 225.149155,360.315186 
	C222.492630,357.019775 219.507431,357.018982 216.851318,360.314850 
	C214.203140,363.600861 211.848755,363.674561 209.185349,360.353699 
	C206.539719,357.054993 203.555450,356.983673 200.887436,360.276306 
	C198.254257,363.525940 195.899979,363.749451 193.222076,360.391846 
	C190.584290,357.084534 187.784378,357.112823 184.871826,360.195343 
	C181.376892,363.894196 177.600571,363.883026 174.226715,360.286682 
	C170.024323,355.807220 167.992889,355.808807 163.764221,360.295074 
	C160.418930,363.844147 148.705185,364.560760 145.814697,360.897217 
	C143.153946,357.524841 140.013626,357.858765 136.137924,357.810577 
	C136.554291,358.983612 136.925583,359.698029 137.053467,360.453613 
	C137.403778,362.523438 137.651718,364.610626 137.940201,366.690918 
	C135.058762,366.949402 132.121399,367.611298 129.329422,367.224335 
	C128.474899,367.105896 127.488312,364.109741 127.486809,362.430634 
	C127.483231,358.405640 125.942795,356.891266 122.515480,358.944244 
	C118.562859,361.311890 115.245766,361.344330 111.404945,358.871155 
	C108.866348,357.236450 106.420555,357.906128 104.520233,360.613159 
	C102.425827,363.596680 100.050354,363.532532 97.517761,360.812195 
	C93.918938,356.946564 91.989647,356.885284 88.628700,360.630554 
	C85.948540,363.617157 83.715401,363.480469 81.259560,360.443420 
	C78.401802,356.909393 75.455193,356.994232 72.627342,360.558624 
	C70.147095,363.684845 67.758728,363.548981 65.296959,360.480988 
	C62.447445,356.929718 59.638813,357.090668 56.622581,360.485748 
	C53.545792,363.948944 49.544277,363.796051 46.298817,360.378052 
	C41.955116,355.803436 39.966568,355.769684 35.832024,360.200409 
	C32.511379,363.758942 21.352468,364.037628 17.713165,361.160370 
	C15.262839,359.223114 12.110893,358.173248 8.531660,356.348541 
	C8.531660,358.527618 8.368110,359.083557 8.555948,359.467621 
	C11.938977,366.383759 11.523738,367.261139 3.980510,368.736969 
	C3.007110,368.927399 1.994468,368.917267 1.000001,369.000000 
M224.676224,320.881836 
	C225.241821,320.727142 226.298660,320.581238 226.301620,320.416473 
	C226.389481,315.502899 226.372986,310.587402 226.372986,305.672241 
	C225.670624,305.684967 224.968246,305.697662 224.265884,305.710388 
	C224.265884,310.564636 224.265884,315.418884 224.676224,320.881836 
M286.111145,334.323822 
	C285.890106,335.218964 285.669067,336.114136 285.447998,337.009277 
	C286.510590,337.106110 287.708099,337.538544 288.589417,337.184357 
	C289.199127,336.939331 289.372498,335.608612 289.740845,334.763031 
	C288.712921,334.490906 287.684998,334.218750 286.111145,334.323822 
M173.717316,295.674652 
	C173.059845,295.804138 172.402390,295.933624 171.744919,296.063110 
	C172.056488,296.549744 172.368057,297.036377 172.679642,297.523041 
	C173.154648,297.037537 173.629639,296.552032 173.717316,295.674652 
z"/>
<path fill="#8463FF" opacity="1.000000" stroke="none" 
	d="
M1.000001,369.468689 
	C1.994468,368.917267 3.007110,368.927399 3.980510,368.736969 
	C11.523738,367.261139 11.938977,366.383759 8.555948,359.467621 
	C8.368110,359.083557 8.531660,358.527618 8.531660,356.348541 
	C12.110893,358.173248 15.262839,359.223114 17.713165,361.160370 
	C21.352468,364.037628 32.511379,363.758942 35.832024,360.200409 
	C39.966568,355.769684 41.955116,355.803436 46.298817,360.378052 
	C49.544277,363.796051 53.545792,363.948944 56.622581,360.485748 
	C59.638813,357.090668 62.447445,356.929718 65.296959,360.480988 
	C67.758728,363.548981 70.147095,363.684845 72.627342,360.558624 
	C75.455193,356.994232 78.401802,356.909393 81.259560,360.443420 
	C83.715401,363.480469 85.948540,363.617157 88.628700,360.630554 
	C91.989647,356.885284 93.918938,356.946564 97.517761,360.812195 
	C100.050354,363.532532 102.425827,363.596680 104.520233,360.613159 
	C106.420555,357.906128 108.866348,357.236450 111.404945,358.871155 
	C115.245766,361.344330 118.562859,361.311890 122.515480,358.944244 
	C125.942795,356.891266 127.483231,358.405640 127.486809,362.430634 
	C127.488312,364.109741 128.474899,367.105896 129.329422,367.224335 
	C132.121399,367.611298 135.058762,366.949402 137.940201,366.690918 
	C137.651718,364.610626 137.403778,362.523438 137.053467,360.453613 
	C136.925583,359.698029 136.554291,358.983612 136.137924,357.810577 
	C140.013626,357.858765 143.153946,357.524841 145.814697,360.897217 
	C148.705185,364.560760 160.418930,363.844147 163.764221,360.295074 
	C167.992889,355.808807 170.024323,355.807220 174.226715,360.286682 
	C177.600571,363.883026 181.376892,363.894196 184.871826,360.195343 
	C187.784378,357.112823 190.584290,357.084534 193.222076,360.391846 
	C195.899979,363.749451 198.254257,363.525940 200.887436,360.276306 
	C203.555450,356.983673 206.539719,357.054993 209.185349,360.353699 
	C211.848755,363.674561 214.203140,363.600861 216.851318,360.314850 
	C219.507431,357.018982 222.492630,357.019775 225.149155,360.315186 
	C227.796707,363.599487 230.305634,363.795471 232.767883,360.318451 
	C234.743881,357.528107 237.316986,357.431458 239.753082,359.032471 
	C243.457489,361.467041 246.654709,361.172821 250.402634,358.983643 
	C253.919556,356.929382 255.450653,358.367249 255.529007,362.314972 
	C255.564194,364.086731 256.736633,367.210236 257.690979,367.329163 
	C260.442627,367.672058 263.345856,366.798309 266.189545,366.402405 
	C265.839813,364.450348 265.533905,362.488953 265.118347,360.551056 
	C264.956970,359.798553 264.548004,359.099152 264.063843,357.916412 
	C267.970306,357.790344 271.068512,357.499786 273.727844,360.816254 
	C276.659668,364.472565 288.340576,363.900940 291.692627,360.386932 
	C296.063538,355.804840 298.047241,355.767822 302.159119,360.191681 
	C305.600128,363.893768 309.364258,363.989868 312.795746,360.283020 
	C315.668854,357.179321 318.482269,357.009308 321.141693,360.307220 
	C323.786438,363.586914 326.141174,363.689087 328.807465,360.361176 
	C331.451233,357.061432 334.434998,356.977661 337.105499,360.268646 
	C339.735687,363.510010 342.062500,363.741699 344.777496,360.405273 
	C347.641968,356.885132 350.591522,357.027191 353.410034,360.596649 
	C355.899658,363.749634 358.447601,363.606293 360.694275,360.409546 
	C362.824768,357.378143 365.484985,357.517761 368.102417,359.196136 
	C371.458466,361.348114 374.389404,361.269379 377.847137,359.254120 
	C381.952911,356.861084 383.458069,358.126587 383.439148,362.690613 
	C383.432434,364.308624 384.664368,367.214661 385.573792,367.314270 
	C388.358490,367.619293 391.261139,366.847565 394.117920,366.494629 
	C393.815643,364.542816 393.568115,362.580139 393.183594,360.644653 
	C393.034241,359.893005 392.575562,359.202759 392.043396,357.999939 
	C395.057709,357.999939 397.607178,357.999939 400.578308,357.999969 
	C401.000000,372.320129 401.000000,386.640259 401.000000,400.957367 
	C267.666656,400.954346 134.333328,400.954346 1.000000,400.954346 
	C1.000000,390.584900 1.000000,380.261108 1.000001,369.468689 
z"/>
<path fill="#7068F5" opacity="1.000000" stroke="none" 
	d="
M319.993561,121.020729 
	C318.876160,117.265999 317.907104,113.458656 316.599304,109.771469 
	C315.311127,106.139771 319.555084,100.085556 323.850830,100.043129 
	C334.345154,99.939484 344.844360,100.138237 355.333984,99.891525 
	C357.579865,99.838707 359.741577,98.136459 362.037903,97.708672 
	C363.992004,97.344627 366.120636,97.512085 368.099945,97.857513 
	C369.108582,98.033546 369.888611,99.565781 370.891174,99.722519 
	C380.603485,101.240868 390.341125,102.597328 400.535767,104.000000 
	C401.000000,129.020889 401.000000,154.041794 400.540375,179.531342 
	C393.649078,179.364319 387.223022,178.311478 380.783997,178.225266 
	C375.653900,178.156570 371.488586,177.264465 368.174927,172.956680 
	C367.344177,171.876724 364.437836,171.392990 363.018677,171.962967 
	C359.469452,173.388397 356.146606,175.451859 352.910156,177.534744 
	C351.979980,178.133377 351.311096,179.609833 351.105194,180.785843 
	C349.717102,188.714081 347.246490,196.522034 348.822754,204.802017 
	C349.047699,205.983704 347.003510,207.597366 346.004456,208.544067 
	C345.994415,205.596191 346.290588,203.067627 345.907104,200.646744 
	C345.443787,197.721970 344.404510,194.888443 343.484375,191.694550 
	C343.329010,190.915009 343.303741,190.456360 343.449860,189.633316 
	C344.960602,179.574509 341.938477,170.510208 338.933563,161.643234 
	C334.744141,149.281158 329.694275,137.210709 324.830322,124.727310 
	C323.111816,123.619522 321.575592,122.799866 320.026550,121.740410 
	C320.013733,121.500603 319.993561,121.020729 319.993561,121.020729 
z"/>
<path fill="#7866FA" opacity="1.000000" stroke="none" 
	d="
M346.009521,209.011093 
	C347.003510,207.597366 349.047699,205.983704 348.822754,204.802017 
	C347.246490,196.522034 349.717102,188.714081 351.105194,180.785843 
	C351.311096,179.609833 351.979980,178.133377 352.910156,177.534744 
	C356.146606,175.451859 359.469452,173.388397 363.018677,171.962967 
	C364.437836,171.392990 367.344177,171.876724 368.174927,172.956680 
	C371.488586,177.264465 375.653900,178.156570 380.783997,178.225266 
	C387.223022,178.311478 393.649078,179.364319 400.540375,180.000000 
	C401.000000,210.020889 401.000000,240.041794 400.594421,270.539398 
	C396.972290,271.675812 393.763916,272.854431 390.537842,272.905090 
	C376.836426,273.120422 363.129639,272.969177 349.425079,273.020752 
	C344.256805,273.040192 338.807465,274.007202 335.734131,267.733154 
	C332.569153,265.788696 331.883850,263.733887 334.192230,260.857788 
	C335.075928,259.756744 335.639191,258.308594 336.045654,256.929352 
	C338.395386,248.955872 340.654663,240.955734 343.317871,232.948029 
	C345.359863,230.555496 347.028473,228.179550 348.697083,225.803589 
	C347.145081,225.195282 345.593079,224.586960 344.036194,223.515289 
	C343.968231,221.503738 343.905212,219.955566 343.630188,218.276917 
	C343.297180,217.807083 343.337708,217.488251 343.823914,216.911026 
	C344.741852,214.091751 345.375702,211.551422 346.009521,209.011093 
z"/>
<path fill="#7068F4" opacity="1.000000" stroke="none" 
	d="
M1.000000,100.468658 
	C7.228722,99.386795 13.446469,98.509232 19.689888,98.250046 
	C24.111629,98.066483 28.566435,98.751495 33.010098,98.977699 
	C34.258411,99.041245 35.786549,99.283455 36.724972,98.700745 
	C39.602501,96.913910 42.218075,96.742500 45.104099,98.625710 
	C45.957951,99.182861 47.268097,99.270622 48.349949,99.212990 
	C59.402050,98.624161 70.449959,97.956795 81.500916,97.345360 
	C81.743477,97.331940 82.008240,97.719673 82.262650,97.915359 
	C81.725922,99.930153 81.189194,101.949867 80.652466,103.969574 
	C81.179657,104.253166 81.706848,104.536758 82.234039,104.820351 
	C84.102058,103.074966 86.136719,101.474655 87.806549,99.556709 
	C92.626808,94.020256 92.816498,93.965179 97.914307,99.698723 
	C98.012115,100.007751 98.025131,100.016129 97.827957,100.223488 
	C97.422531,100.957123 97.214287,101.483406 97.004196,102.005180 
	C97.002350,102.000679 97.011681,102.013504 96.670059,101.932312 
	C94.416794,101.657166 91.310684,100.645569 90.791130,101.404556 
	C87.849907,105.701225 85.528313,110.422066 82.638763,115.064240 
	C81.147064,115.224670 79.935005,115.625496 78.890785,115.361771 
	C73.997993,114.126015 71.058434,117.044937 68.436409,120.299156 
	C67.718018,121.190765 67.998932,122.887543 67.821266,124.214828 
	C69.058563,123.842270 70.864212,123.860954 71.436020,123.030296 
	C74.091209,119.173134 77.389870,119.552002 80.916138,121.325790 
	C75.864937,125.810036 72.767044,130.854187 73.203903,137.688263 
	C73.231697,137.799133 73.067276,137.957947 72.722565,138.043945 
	C70.384628,141.275970 67.571106,144.182404 66.567902,147.617538 
	C64.439301,154.906265 57.168022,160.376495 58.811630,168.703339 
	C58.112934,166.763016 57.624474,165.125900 57.136009,163.488770 
	C56.579418,163.490662 56.022827,163.492554 55.466236,163.494461 
	C54.977032,167.998138 54.487831,172.501816 53.748817,177.003174 
	C53.499008,177.000854 52.999390,176.996536 52.811707,176.698044 
	C46.752785,171.766068 53.121082,166.459900 52.442059,160.834549 
	C50.979164,161.643433 49.852383,161.891830 49.722149,162.397125 
	C48.567410,166.877411 45.197372,166.945236 41.504803,167.073868 
	C38.054661,167.194046 34.638115,168.081055 31.184961,168.366882 
	C27.558056,168.667084 23.889086,168.929718 20.267282,168.717499 
	C13.833401,168.340485 7.421245,167.592682 1.000000,167.000000 
	C1.000000,144.979111 1.000000,122.958214 1.000000,100.468658 
z"/>
<path fill="#7766F9" opacity="1.000000" stroke="none" 
	d="
M1.000000,272.000000 
	C1.000000,246.645767 1.000000,221.291550 1.468657,195.468658 
	C9.755562,194.999786 17.581020,195.187546 25.387781,194.888000 
	C27.818081,194.794754 30.143761,193.044342 32.612755,192.650009 
	C36.754883,191.988480 41.230339,190.829712 45.051365,191.834839 
	C46.955139,192.335632 47.786213,197.141052 48.975555,200.051163 
	C49.766651,201.986832 50.333233,204.014252 51.000130,206.448868 
	C50.658756,211.784775 50.781025,216.530487 55.017075,220.400513 
	C55.944195,222.215515 56.871979,223.646133 57.887493,225.207031 
	C58.087360,225.513428 58.217712,225.674866 58.512253,226.148773 
	C58.701694,226.949356 58.745159,227.422775 58.509155,228.047882 
	C55.900936,236.532883 61.139500,243.440231 62.797504,250.985962 
	C64.305725,257.850037 67.548965,264.332855 69.679947,271.152771 
	C66.609253,271.881134 63.881390,272.944336 61.163536,272.919373 
	C41.107903,272.734833 21.054266,272.333282 1.000000,272.000000 
z"/>
<path fill="#7E65FD" opacity="1.000000" stroke="none" 
	d="
M1.000000,272.468658 
	C21.054266,272.333282 41.107903,272.734833 61.163536,272.919373 
	C63.881390,272.944336 66.609253,271.881134 69.994629,271.275574 
	C75.416466,279.292938 80.176178,287.356506 85.424835,296.248444 
	C86.282387,296.823059 88.569496,297.946838 90.343445,299.615997 
	C97.492767,306.342987 104.466980,313.255676 111.541359,320.062897 
	C114.320137,322.736755 117.192024,325.313843 120.021515,327.934998 
	C118.576828,328.998444 117.241371,330.294037 115.648834,331.043243 
	C114.597816,331.537720 113.177193,331.246582 111.922050,331.307190 
	C111.908295,330.250580 111.751709,329.172302 111.908073,328.141510 
	C112.344948,325.261292 109.355232,322.525146 105.552094,322.494202 
	C84.249321,322.320831 62.946613,322.127167 41.643497,322.013092 
	C28.408447,321.942230 15.172711,322.000000 1.468642,322.000000 
	C1.000000,305.645782 1.000000,289.291534 1.000000,272.468658 
z"/>
<path fill="#7469F5" opacity="1.000000" stroke="none" 
	d="
M51.000305,206.000610 
	C50.333233,204.014252 49.766651,201.986832 48.975555,200.051163 
	C47.786213,197.141052 46.955139,192.335632 45.051365,191.834839 
	C41.230339,190.829712 36.754883,191.988480 32.612755,192.650009 
	C30.143761,193.044342 27.818081,194.794754 25.387781,194.888000 
	C17.581020,195.187546 9.755562,194.999786 1.468657,195.000000 
	C1.000000,185.979111 1.000000,176.958206 1.000000,167.468658 
	C7.421245,167.592682 13.833401,168.340485 20.267282,168.717499 
	C23.889086,168.929718 27.558056,168.667084 31.184961,168.366882 
	C34.638115,168.081055 38.054661,167.194046 41.504803,167.073868 
	C45.197372,166.945236 48.567410,166.877411 49.722149,162.397125 
	C49.852383,161.891830 50.979164,161.643433 52.442059,160.834549 
	C53.121082,166.459900 46.752785,171.766068 52.466141,176.867523 
	C51.651501,181.907059 50.994747,186.478607 50.337994,191.050171 
	C51.098156,191.130173 51.858318,191.210175 52.618481,191.290176 
	C53.078529,186.528625 53.538578,181.767059 53.998627,177.005493 
	C54.487831,172.501816 54.977032,167.998138 55.466236,163.494461 
	C56.022827,163.492554 56.579418,163.490662 57.136009,163.488770 
	C57.624474,165.125900 58.112934,166.763016 58.780197,169.111099 
	C57.970749,177.548981 56.982502,185.275925 55.638901,193.100113 
	C54.522312,195.465118 53.761082,197.732864 52.977417,200.364243 
	C52.303421,202.485458 51.651863,204.243027 51.000305,206.000610 
z"/>
<path fill="#7D65FC" opacity="1.000000" stroke="none" 
	d="
M335.908508,267.999847 
	C338.807465,274.007202 344.256805,273.040192 349.425079,273.020752 
	C363.129639,272.969177 376.836426,273.120422 390.537842,272.905090 
	C393.763916,272.854431 396.972290,271.675812 400.594421,271.008057 
	C401.000000,274.030609 401.000000,277.061188 400.531342,280.545898 
	C392.093048,281.000549 384.121063,281.115631 376.154877,280.950348 
	C372.510712,280.874725 370.063660,281.693420 369.452606,285.785583 
	C369.256226,287.100677 368.303680,288.708496 367.204346,289.407806 
	C363.780396,291.585907 353.741913,287.638489 351.952209,283.787323 
	C351.467499,282.744202 350.329529,281.242432 349.501984,281.249176 
	C345.314331,281.283295 340.504791,279.170654 337.596436,284.592865 
	C336.919861,285.854248 334.577637,286.222198 332.756714,286.818542 
	C331.592346,286.962433 330.673035,287.289001 329.753754,287.615601 
	C330.835846,288.076660 331.917908,288.537720 332.955383,289.361816 
	C331.307190,290.241058 329.694580,290.731262 328.102478,291.280762 
	C326.531708,291.822845 324.981598,292.424835 323.422455,293.000580 
	C323.610840,293.510071 323.799194,294.019592 323.987579,294.529083 
	C329.905304,294.986572 335.832001,295.916229 341.738861,295.803650 
	C354.165131,295.566711 366.495728,293.437347 379.036560,294.850403 
	C386.271454,295.665619 393.673309,294.999420 401.000000,295.000000 
	C401.000000,295.750000 401.000000,296.500000 401.000000,297.625000 
	C388.969452,298.287567 376.940247,298.671997 364.908020,298.835693 
	C352.684967,299.002014 340.453918,299.148132 328.238159,298.838562 
	C325.591797,298.771484 322.995605,296.725006 320.186493,294.888824 
	C319.667816,292.135986 319.338989,290.084503 318.875244,287.675476 
	C318.620697,287.093018 318.501007,286.868103 318.401764,286.610901 
	C318.422180,286.578644 318.497131,286.593231 318.833801,286.568420 
	C319.805908,285.737823 320.441284,284.932007 321.395569,284.095581 
	C322.140167,284.031860 322.565918,283.998749 323.016907,284.270691 
	C323.795532,284.914398 325.121429,285.666809 325.219147,285.531616 
	C328.212555,281.389618 331.085510,277.160553 334.037292,272.615509 
	C334.701141,270.857300 335.304840,269.428558 335.908508,267.999847 
z"/>
<path fill="#7B64FD" opacity="1.000000" stroke="none" 
	d="
M401.000000,294.535339 
	C393.673309,294.999420 386.271454,295.665619 379.036560,294.850403 
	C366.495728,293.437347 354.165131,295.566711 341.738861,295.803650 
	C335.832001,295.916229 329.905304,294.986572 323.987579,294.529083 
	C323.799194,294.019592 323.610840,293.510071 323.422455,293.000580 
	C324.981598,292.424835 326.531708,291.822845 328.102478,291.280762 
	C329.694580,290.731262 331.307190,290.241058 332.955566,289.028900 
	C333.000854,287.889038 333.001343,287.445129 333.001831,287.001221 
	C334.577637,286.222198 336.919861,285.854248 337.596436,284.592865 
	C340.504791,279.170654 345.314331,281.283295 349.501984,281.249176 
	C350.329529,281.242432 351.467499,282.744202 351.952209,283.787323 
	C353.741913,287.638489 363.780396,291.585907 367.204346,289.407806 
	C368.303680,288.708496 369.256226,287.100677 369.452606,285.785583 
	C370.063660,281.693420 372.510712,280.874725 376.154877,280.950348 
	C384.121063,281.115631 392.093048,281.000549 400.531342,281.000000 
	C401.000000,285.356903 401.000000,289.713806 401.000000,294.535339 
z"/>
<path fill="#FDFDFE" opacity="1.000000" stroke="none" 
	d="
M58.788620,227.896179 
	C58.745159,227.422775 58.701694,226.949356 58.573124,225.875458 
	C58.323082,224.546799 58.158142,223.818649 58.025894,222.691452 
	C56.331379,207.615555 55.844025,192.809448 59.593163,178.513229 
	C63.199219,164.762619 68.507133,151.458344 73.067276,137.957947 
	C73.067276,137.957947 73.231697,137.799133 73.480896,137.451111 
	C77.637688,130.897598 81.545273,124.692108 85.484695,118.469109 
	C85.516533,118.451607 85.502838,118.380241 85.743057,118.197357 
	C86.936142,116.675545 87.889008,115.336601 88.967728,113.908203 
	C89.093575,113.818748 89.160759,113.517326 89.431374,113.350189 
	C89.873840,112.802711 90.045700,112.422386 90.165787,112.084114 
	C90.114021,112.126175 90.201424,112.226967 90.468307,112.096436 
	C91.325294,111.201881 91.915390,110.437851 92.518028,109.680969 
	C92.530571,109.688118 92.557228,109.688591 92.825409,109.485336 
	C96.882790,105.378532 100.671989,101.474976 104.461189,97.571419 
	C104.461189,97.571419 104.590889,97.563339 104.887375,97.353622 
	C113.891502,90.914505 122.599136,84.685104 131.306763,78.455704 
	C131.306763,78.455696 131.258591,78.498657 131.638260,78.410873 
	C134.539444,76.955124 137.060944,75.587166 139.582443,74.219208 
	C139.582443,74.219200 139.819901,74.247643 140.274323,74.119995 
	C155.486710,69.617470 170.244675,65.242607 185.002640,60.867733 
	C187.052567,60.967690 189.102478,61.067650 192.048889,61.131706 
	C209.222549,60.225510 225.127945,62.735043 240.909348,66.371780 
	C240.909348,66.371780 240.903366,66.256081 241.083557,66.534065 
	C243.148743,67.323257 245.033722,67.834465 246.918716,68.345680 
	C246.918716,68.345680 246.907562,68.195534 247.045654,68.452957 
	C247.814316,68.827705 248.444885,68.945023 249.075455,69.062340 
	C249.075455,69.062340 249.232803,69.214912 249.606171,69.432098 
	C252.031952,70.425507 254.084351,71.201729 256.394897,72.180649 
	C258.088348,72.947861 259.523621,73.512375 260.958893,74.076889 
	C260.958893,74.076889 260.991486,74.010551 261.156128,74.264771 
	C261.890717,74.699532 262.460663,74.880081 263.030640,75.060638 
	C263.030640,75.060638 263.195007,75.231895 263.563171,75.489944 
	C274.380341,82.667953 284.829315,89.587929 295.278290,96.507904 
	C295.278290,96.507904 295.344971,96.694557 295.608704,96.960770 
	C298.799561,99.927895 301.726715,102.628799 304.653870,105.329712 
	C304.653870,105.329704 304.726166,105.275955 304.771851,105.516037 
	C305.115875,105.967972 305.414185,106.179832 305.712494,106.391701 
	C305.712494,106.391701 305.631073,106.350891 305.752808,106.692474 
	C309.102417,110.803535 312.330261,114.572998 315.558136,118.342468 
	C315.558136,118.342468 315.630127,118.313553 315.680786,118.574081 
	C316.132599,119.254234 316.533783,119.673851 316.934937,120.093468 
	C316.934937,120.093468 316.964172,120.013565 317.020569,120.375664 
	C331.764404,141.572128 340.420929,164.688019 343.278442,189.997711 
	C343.303741,190.456360 343.329010,190.915009 343.409729,192.117249 
	C343.490021,200.970551 343.514893,209.080261 343.539764,217.189972 
	C343.337708,217.488251 343.297180,217.807083 343.341522,218.585449 
	C341.309662,236.733490 336.064880,253.490204 328.616486,269.642761 
	C328.612671,269.675415 328.664825,269.715515 328.414490,269.907990 
	C327.745392,271.055878 327.326660,272.011261 326.941467,272.973450 
	C326.975067,272.980286 326.944672,272.918854 326.683685,273.131958 
	C324.590363,276.503601 322.757996,279.662140 320.672729,283.029968 
	C319.778900,284.357239 319.138031,285.475250 318.497131,286.593231 
	C318.497131,286.593231 318.422180,286.578644 318.161377,286.792938 
	C317.483429,287.704468 317.066254,288.401733 316.601501,289.108948 
	C316.553955,289.118866 316.553772,289.216095 316.274902,289.419434 
	C314.828674,291.289124 313.661377,292.955505 312.544617,294.637146 
	C312.595184,294.652374 312.608429,294.547607 312.317963,294.692383 
	C310.656952,296.541962 309.286377,298.246704 307.950195,299.967773 
	C307.984528,299.984070 307.944885,299.919189 307.637512,300.053101 
	C303.730804,303.914642 300.131500,307.642273 296.510803,311.386230 
	C296.489380,311.402618 296.492126,311.456451 296.188232,311.588989 
	C289.229218,316.792847 282.574066,321.864197 275.954956,326.948181 
	C275.990936,326.960815 275.949493,326.896729 275.607544,326.952057 
	C273.400696,328.211517 271.535736,329.415619 269.747070,330.651154 
	C269.823334,330.682556 269.704071,330.568604 269.349152,330.643066 
	C261.605499,334.025360 254.216751,337.333160 246.828003,340.640991 
	C246.828003,340.640961 246.755020,340.618744 246.342865,340.675507 
	C243.606491,340.514069 241.282288,340.295837 238.721542,339.798035 
	C237.666107,336.760712 236.198914,334.017395 236.137054,331.242767 
	C235.815979,316.840393 235.853424,302.430084 235.794678,287.658142 
	C235.471481,285.868256 235.119614,284.442749 234.785339,282.739868 
	C234.579895,281.975983 234.356812,281.489441 234.121841,280.625916 
	C232.154694,276.220154 230.199432,272.191315 228.157394,267.983643 
	C229.586319,267.634399 231.297409,267.216187 233.392029,266.805176 
	C234.255753,266.651672 234.735977,266.490967 235.381836,266.373474 
	C235.798584,266.391541 235.981277,266.266327 236.062531,266.032288 
	C236.029526,266.023529 236.022995,266.091522 236.442291,266.122833 
	C245.347229,263.243896 253.832886,260.333649 262.348419,257.465668 
	C262.378296,257.507965 262.470093,257.460052 262.757812,257.406158 
	C263.725403,256.642578 264.405243,255.932877 265.363556,255.193787 
	C268.429657,253.104416 271.217255,251.044449 273.997437,248.986755 
	C273.990051,248.989044 273.983124,249.002975 274.292084,248.869751 
	C289.988220,232.656296 293.024963,213.001709 291.026947,191.598907 
	C291.022430,190.903030 291.041931,190.505188 291.322266,189.951370 
	C291.387360,188.862106 291.191681,187.928818 291.004578,186.598633 
	C289.254761,176.579208 285.440399,167.947556 279.187988,160.326614 
	C278.209595,159.134048 278.232910,156.585419 278.648682,154.871368 
	C281.065948,144.905289 280.303528,135.149231 277.792419,125.305382 
	C276.546082,120.419510 273.636932,118.889114 269.449158,120.378601 
	C260.896149,123.420692 252.189835,126.335968 244.193558,130.535309 
	C238.575439,133.485764 233.561447,136.271622 227.011230,133.611053 
	C226.251694,133.185272 225.651321,133.038589 224.823700,132.746002 
	C224.068680,132.512650 223.540939,132.425186 222.613556,132.195953 
	C206.423477,129.596832 190.677399,129.389114 174.598114,132.975311 
	C167.677628,135.251495 162.279175,133.731247 156.230576,130.131699 
	C148.952774,125.800659 140.608459,123.019325 132.435837,120.512756 
	C126.152275,118.585571 124.981224,119.768799 123.223976,125.913971 
	C120.867470,134.154846 119.731422,142.604172 121.864723,150.966324 
	C123.253433,156.409851 122.687256,160.588379 118.843750,164.886703 
	C116.385437,167.635910 115.180748,171.506104 113.225220,175.152466 
	C106.409149,192.751480 108.156303,210.127930 113.478004,227.228943 
	C117.613731,240.518967 125.609795,251.137268 138.521271,257.513306 
	C138.565994,257.560425 138.673248,257.487091 138.876465,257.742981 
	C150.210205,261.772583 161.340729,265.546234 171.974762,269.151581 
	C170.261810,273.043915 167.653778,277.391174 166.491989,282.095642 
	C165.513535,286.057831 163.684784,288.205078 159.676056,289.149353 
	C158.172623,289.558990 156.997726,290.012268 155.775299,290.408203 
	C155.727753,290.350891 155.601089,290.429352 155.414093,290.409668 
	C155.227097,290.389954 154.892593,290.561798 154.678513,290.546387 
	C154.464432,290.531006 154.091736,290.743988 153.754013,290.690948 
	C147.620789,289.747650 141.825302,288.857391 135.797333,287.727631 
	C131.479019,283.208130 126.960709,279.256317 123.407158,274.572510 
	C117.862350,267.264160 111.597763,261.362549 102.054749,260.581177 
	C99.846680,260.400360 97.504837,261.853302 95.224556,262.554443 
	C96.190948,264.350647 97.157341,266.146820 97.893379,268.088074 
	C97.538826,268.891052 97.414635,269.548981 97.290443,270.206940 
	C97.897247,269.668091 98.504051,269.129242 99.443825,268.712097 
	C107.518417,273.227417 112.277473,280.169891 115.480782,288.138672 
	C120.884918,301.582428 131.251358,307.545868 145.496246,308.845825 
	C148.926834,308.852905 151.916168,308.770630 155.281815,308.701294 
	C156.131073,308.558960 156.604019,308.403748 157.462524,308.285706 
	C159.918884,308.205109 161.989670,308.087341 164.774750,307.928925 
	C164.774750,317.372559 165.108292,326.155212 164.530792,334.877533 
	C164.393341,336.953583 161.544479,339.614136 159.326263,340.559784 
	C157.360184,341.397980 154.537521,340.226898 151.814972,339.725830 
	C147.017639,337.681396 142.498352,335.853912 137.987885,334.012634 
	C137.996704,333.998779 137.971207,334.023621 137.765045,333.828094 
	C137.036530,333.445007 136.514160,333.257477 135.981293,333.038177 
	C135.970779,333.006409 135.911697,333.037842 135.701431,332.796509 
	C134.703094,332.251923 133.915009,331.948700 133.158905,331.628357 
	C133.190887,331.611298 133.205200,331.540222 132.979477,331.304626 
	C120.401329,324.309723 109.168121,316.034882 99.209793,306.075867 
	C77.446594,284.311218 64.315720,258.064758 58.788620,227.896179 
M91.936760,261.232513 
	C87.695312,265.098083 92.321213,266.878296 92.988403,269.589508 
	C93.640190,269.440857 94.291977,269.292236 94.943771,269.143585 
	C94.144089,266.550751 93.344406,263.957886 91.936760,261.232513 
z"/>
<path fill="#8074DF" opacity="1.000000" stroke="none" 
	d="
M343.449890,189.633316 
	C340.420929,164.688019 331.764404,141.572128 316.987427,120.402359 
	C317.731934,120.293549 318.565918,120.520142 319.696747,120.883736 
	C319.993561,121.020729 320.013733,121.500603 320.193726,122.036331 
	C321.920013,123.386520 323.466339,124.200981 325.012634,125.015442 
	C329.694275,137.210709 334.744141,149.281158 338.933563,161.643234 
	C341.938477,170.510208 344.960602,179.574509 343.449890,189.633316 
z"/>
<path fill="#7A75DB" opacity="1.000000" stroke="none" 
	d="
M184.668182,60.677544 
	C170.244675,65.242607 155.486710,69.617470 140.354034,74.030861 
	C140.768005,73.085320 141.378464,71.504478 142.372391,71.207626 
	C155.183945,67.381126 168.041794,63.707832 180.918472,60.104927 
	C181.941162,59.818779 183.190002,60.340874 184.668182,60.677544 
z"/>
<path fill="#7A75DB" opacity="1.000000" stroke="none" 
	d="
M130.913162,78.348038 
	C122.599136,84.685104 113.891502,90.914505 104.901894,97.290283 
	C103.510689,95.690384 102.401466,93.944099 101.143967,91.964371 
	C111.655128,92.819305 116.702515,83.656784 124.737740,80.504128 
	C126.664474,79.748177 128.592270,78.994888 130.913162,78.348038 
z"/>
<path fill="#8074DF" opacity="1.000000" stroke="none" 
	d="
M295.421265,96.130585 
	C284.829315,89.587929 274.380341,82.667953 263.681580,75.481361 
	C265.922180,75.966743 268.686798,76.259506 270.853699,77.553360 
	C278.622467,82.192070 286.233246,87.102768 293.777588,92.101051 
	C294.751984,92.746628 294.986786,94.508499 295.421265,96.130585 
z"/>
<path fill="#7273CA" opacity="1.000000" stroke="none" 
	d="
M240.681976,66.065659 
	C225.127945,62.735043 209.222549,60.225510 192.481812,61.039349 
	C199.045166,60.653393 206.172104,59.435566 213.074387,60.212860 
	C222.292419,61.250950 231.336060,63.837830 240.681976,66.065659 
z"/>
<path fill="#7A75DB" opacity="1.000000" stroke="none" 
	d="
M104.100296,97.493172 
	C100.671989,101.474976 96.882790,105.378532 92.769394,109.111023 
	C93.967354,106.631142 95.489517,104.322327 97.011681,102.013504 
	C97.011681,102.013504 97.002350,102.000679 97.199348,101.795982 
	C97.605942,101.066238 97.815536,100.541183 98.025131,100.016129 
	C98.025131,100.016129 98.012115,100.007751 98.025185,100.019402 
	C99.938637,99.159012 101.839027,98.286964 104.100296,97.493172 
z"/>
<path fill="#8074DF" opacity="1.000000" stroke="none" 
	d="
M315.640625,117.965530 
	C312.330261,114.572998 309.102417,110.803535 305.736450,106.734985 
	C311.463135,107.893112 313.734985,112.612076 315.640625,117.965530 
z"/>
<path fill="#8074DF" opacity="1.000000" stroke="none" 
	d="
M304.671997,104.969940 
	C301.726715,102.628799 298.799561,99.927895 295.707764,96.962814 
	C300.599945,97.014435 302.578369,100.889351 304.671997,104.969940 
z"/>
<path fill="#7A75DB" opacity="1.000000" stroke="none" 
	d="
M139.162430,74.175186 
	C137.060944,75.587166 134.539444,76.955124 131.670776,78.406189 
	C133.796555,77.036575 136.269485,75.583870 139.162430,74.175186 
z"/>
<path fill="#7273CA" opacity="1.000000" stroke="none" 
	d="
M256.136749,71.977959 
	C254.084351,71.201729 252.031952,70.425507 249.706818,69.388710 
	C251.861679,69.815460 254.289291,70.502792 256.673401,71.541290 
	C256.465485,71.920975 256.301117,71.949471 256.136749,71.977959 
z"/>
<path fill="#7273CA" opacity="1.000000" stroke="none" 
	d="
M246.712891,68.027084 
	C245.033722,67.834465 243.148743,67.323257 241.026321,66.542969 
	C242.694962,66.752098 244.601013,67.230293 246.712891,68.027084 
z"/>
<path fill="#8074DF" opacity="1.000000" stroke="none" 
	d="
M256.394897,72.180649 
	C256.301117,71.949471 256.465485,71.920975 256.877502,71.847641 
	C258.329834,72.343727 259.534607,72.884628 260.849121,73.751213 
	C259.523621,73.512375 258.088348,72.947861 256.394897,72.180649 
z"/>
<path fill="#8074DF" opacity="1.000000" stroke="none" 
	d="
M262.815369,74.850754 
	C262.460663,74.880081 261.890717,74.699532 261.125336,74.285225 
	C261.486633,74.247940 262.043365,74.444412 262.815369,74.850754 
z"/>
<path fill="#8074DF" opacity="1.000000" stroke="none" 
	d="
M316.882080,119.793999 
	C316.533783,119.673851 316.132599,119.254234 315.658936,118.542030 
	C316.000671,118.664474 316.414948,119.079506 316.882080,119.793999 
z"/>
<path fill="#7273CA" opacity="1.000000" stroke="none" 
	d="
M248.834747,68.852173 
	C248.444885,68.945023 247.814316,68.827705 246.971100,68.463333 
	C247.370300,68.358192 247.982162,68.500099 248.834747,68.852173 
z"/>
<path fill="#8074DF" opacity="1.000000" stroke="none" 
	d="
M305.613647,106.135132 
	C305.414185,106.179832 305.115875,105.967972 304.740601,105.483589 
	C304.947388,105.433563 305.231110,105.656067 305.613647,106.135132 
z"/>
<path fill="#7866FA" opacity="1.000000" stroke="none" 
	d="
M235.216217,266.330261 
	C234.735977,266.490967 234.255753,266.651672 233.079987,266.629761 
	C224.399933,264.836945 224.457397,264.819031 226.906876,272.679352 
	C227.539871,274.710571 227.688919,276.892609 228.060272,279.005371 
	C223.423813,278.661438 218.777924,278.406921 214.156525,277.919983 
	C212.740875,277.770813 211.262024,277.198761 210.035217,276.453278 
	C204.086639,272.838440 198.373535,273.212616 192.126266,276.142273 
	C188.894638,277.657684 184.794754,277.953278 181.141876,277.760895 
	C177.497696,277.568939 174.610168,277.261719 174.787369,282.348969 
	C173.051239,280.970612 171.850189,280.017059 170.338211,278.662964 
	C170.850632,276.874969 171.617462,275.449890 172.510513,274.108917 
	C173.878204,272.055298 175.332886,270.059662 177.230011,267.356354 
	C173.132553,266.497833 170.453201,265.936432 167.783798,265.377136 
	C167.916428,263.881317 168.021500,262.696442 168.142670,261.330048 
	C165.621094,262.183167 163.454910,263.619202 161.424622,263.447601 
	C157.868423,263.146973 154.380768,261.914795 150.891769,260.971680 
	C146.803665,259.866608 142.744797,258.653381 138.673248,257.487091 
	C138.673248,257.487091 138.565994,257.560425 138.661957,257.133820 
	C139.362061,255.113602 139.966202,253.519974 140.655853,251.700836 
	C132.122452,252.761841 128.608170,250.065903 126.194717,241.341217 
	C125.920174,240.348755 124.905991,239.111557 123.976524,238.824753 
	C119.069672,237.310684 117.841408,233.345901 117.283875,228.817245 
	C122.491859,225.787796 122.411949,218.881485 117.560539,215.213684 
	C116.372047,214.315170 115.632225,212.823212 114.686134,211.604080 
	C116.315224,211.091003 117.930573,210.246002 119.578079,210.177826 
	C120.737770,210.129807 122.241570,210.852692 123.070732,211.725998 
	C125.967545,214.777084 128.299057,215.839996 130.415894,210.965164 
	C130.816879,210.041748 132.518402,209.154892 133.616943,209.158371 
	C137.411438,209.170441 141.215363,209.480270 144.995468,209.871887 
	C149.079178,210.294983 153.153671,210.853165 157.207748,211.504562 
	C162.537338,212.360886 168.678146,208.336807 173.124237,215.176514 
	C176.536652,209.137161 181.545578,208.745483 186.924683,208.967819 
	C197.785233,209.416672 208.661240,209.545639 219.509567,210.174301 
	C221.072250,210.264862 222.500366,212.416656 224.020477,213.575577 
	C225.543610,214.736771 226.969452,216.463989 228.679688,216.838150 
	C231.219589,217.393845 234.047470,217.350769 236.606796,216.836304 
	C238.191879,216.517685 240.413361,215.089493 240.761917,213.747238 
	C241.597580,210.529083 243.514771,209.934982 246.261246,209.999100 
	C250.031799,210.087173 253.808563,210.268661 257.573608,210.141571 
	C262.339081,209.980713 267.151581,208.947159 271.841949,209.383820 
	C278.125336,209.968811 283.311188,215.440811 282.745758,221.570190 
	C282.088501,228.695694 278.941101,235.203857 273.730591,240.472977 
	C272.863953,241.349350 272.351135,242.575607 271.674805,243.640167 
	C272.798981,244.095596 273.923126,244.551025 274.902557,245.323456 
	C274.499603,246.761292 274.241364,247.882141 273.983124,249.002975 
	C273.983124,249.002975 273.990051,248.989044 273.609375,248.988403 
	C270.489532,250.666153 267.750305,252.344543 264.715668,253.918503 
	C263.405762,253.067932 262.391266,252.321793 261.376801,251.575653 
	C261.118469,251.785095 260.860138,251.994553 260.601807,252.203995 
	C261.224579,253.956009 261.847351,255.708038 262.470093,257.460052 
	C262.470093,257.460052 262.378296,257.507965 261.927032,257.356750 
	C257.673889,257.772980 253.872009,258.340393 249.955658,258.924927 
	C249.062500,263.578156 245.696182,261.914520 242.719971,261.401001 
	C240.056351,260.941437 237.380783,260.551178 234.619690,260.116028 
	C235.277054,262.915161 235.650024,264.503326 236.022995,266.091522 
	C236.022995,266.091522 236.029526,266.023529 235.908432,266.059265 
	C235.586838,266.148865 235.396469,266.227264 235.216217,266.330261 
z"/>
<path fill="#816CEC" opacity="1.000000" stroke="none" 
	d="
M98.123734,267.943024 
	C97.157341,266.146820 96.190948,264.350647 95.224556,262.554443 
	C97.504837,261.853302 99.846680,260.400360 102.054749,260.581177 
	C111.597763,261.362549 117.862350,267.264160 123.407158,274.572510 
	C126.960709,279.256317 131.479019,283.208130 135.768509,288.094391 
	C135.767227,290.403778 135.562271,292.106873 135.289764,294.371307 
	C137.883652,293.651520 139.758667,292.696167 141.610779,292.738739 
	C143.493103,292.781952 145.457306,293.598907 147.194183,294.462219 
	C149.063309,295.391327 150.710022,296.767853 152.853943,298.220245 
	C153.410858,294.856476 153.751297,292.800232 154.091736,290.743988 
	C154.091736,290.743988 154.464432,290.531006 154.772903,290.675201 
	C155.081375,290.819397 155.468750,290.843201 155.468750,290.843201 
	C155.468750,290.843201 155.601089,290.429352 155.601089,290.429352 
	C155.601089,290.429352 155.727753,290.350891 156.044571,290.623169 
	C156.888107,291.581024 157.414825,292.266571 157.763062,293.177490 
	C157.384521,293.938019 157.184479,294.473175 156.984421,295.008331 
	C154.697906,297.822845 155.798721,302.904877 158.943726,303.910492 
	C160.045120,304.262665 161.196701,304.457855 162.463043,305.141449 
	C160.759476,306.454987 158.918213,307.351776 157.076950,308.248535 
	C156.604019,308.403748 156.131073,308.558960 154.933105,308.544495 
	C151.157043,308.502045 148.106018,308.629272 145.054993,308.756500 
	C131.251358,307.545868 120.884918,301.582428 115.480782,288.138672 
	C112.277473,280.169891 107.518417,273.227417 99.330261,268.538757 
	C98.669022,268.045837 98.415695,267.945618 98.123734,267.943024 
z"/>
<path fill="#7E65FD" opacity="1.000000" stroke="none" 
	d="
M148.065643,341.973907 
	C143.014709,341.554565 137.970551,340.983002 132.910965,340.758484 
	C127.795471,340.531494 122.663101,340.715607 117.541191,340.592041 
	C113.739914,340.500427 109.943985,340.037537 106.144928,340.027649 
	C84.316452,339.970764 62.487591,340.038055 40.659363,339.945496 
	C38.232414,339.935211 35.808620,339.180573 33.383362,338.771118 
	C33.385410,338.248932 33.387459,337.726746 33.389503,337.204559 
	C34.320240,336.811157 35.241665,336.108734 36.183399,336.080322 
	C39.441246,335.982178 41.489632,334.813690 42.147568,331.317535 
	C42.364204,330.166382 43.858734,329.255707 44.768929,328.235077 
	C45.835365,329.268158 47.600079,330.161743 47.839394,331.360016 
	C48.605972,335.198395 51.008064,336.035126 54.369522,336.012848 
	C62.534050,335.958801 70.704353,335.828369 78.861794,336.075958 
	C82.603180,336.189545 86.319687,337.120361 90.047699,337.679077 
	C90.705170,337.777618 91.417084,338.081146 92.013878,337.931396 
	C101.737968,335.491577 112.657066,338.200043 121.918556,331.297180 
	C123.616158,332.134521 124.628532,333.226166 125.810791,333.460449 
	C129.882599,334.267365 133.214157,338.753204 138.354477,336.069885 
	C141.825226,338.094391 144.945435,340.034149 148.065643,341.973907 
z"/>
<path fill="#8573E3" opacity="1.000000" stroke="none" 
	d="
M58.509155,228.047882 
	C64.315720,258.064758 77.446594,284.311218 99.209793,306.075867 
	C109.168121,316.034882 120.401329,324.309723 132.583176,331.400635 
	C131.610931,331.819580 130.809265,331.906921 129.799072,331.803619 
	C129.067581,331.420227 128.544647,331.227417 127.702950,330.926636 
	C125.598389,329.867645 123.812584,328.916595 122.026779,327.965546 
	C121.581001,327.958191 121.135216,327.950836 120.355476,327.939240 
	C117.192024,325.313843 114.320137,322.736755 111.541359,320.062897 
	C104.466980,313.255676 97.492767,306.342987 90.343445,299.615997 
	C88.569496,297.946838 86.282387,296.823059 85.424835,296.248444 
	C80.176178,287.356506 75.416466,279.292938 70.342079,271.106567 
	C67.548965,264.332855 64.305725,257.850037 62.797504,250.985962 
	C61.139500,243.440231 55.900936,236.532883 58.509155,228.047882 
z"/>
<path fill="#7D65FC" opacity="1.000000" stroke="none" 
	d="
M318.001434,296.002808 
	C317.958344,298.565826 318.198883,301.184845 317.710327,303.659943 
	C317.550537,304.469482 315.128876,305.723053 314.363953,305.381165 
	C308.481171,302.751617 307.773224,309.944519 303.788452,310.706787 
	C304.274902,312.963196 304.834808,315.207336 305.215393,317.481476 
	C305.392975,318.542633 305.630310,319.974670 305.097687,320.667511 
	C304.557281,321.370483 302.528717,321.965027 302.134064,321.585571 
	C297.809570,317.427399 293.779907,321.256775 289.321716,321.537048 
	C289.921326,319.981445 290.836853,318.706146 291.794464,317.463318 
	C293.345825,315.449829 294.924805,313.457611 296.492126,311.456451 
	C296.492126,311.456451 296.489380,311.402618 296.874390,311.481201 
	C302.114166,308.866425 306.699646,305.925873 307.944885,299.919189 
	C307.944885,299.919189 307.984528,299.984070 308.274811,299.939087 
	C309.379486,299.597137 310.193848,299.300232 311.198303,299.273346 
	C315.989227,302.839325 316.181610,297.901215 318.001434,296.002808 
z"/>
<path fill="#7F65FB" opacity="1.000000" stroke="none" 
	d="
M246.940048,341.899658 
	C248.014114,343.275879 249.088165,344.652130 250.297867,346.202148 
	C244.753723,348.331909 239.377380,350.397186 233.022552,352.838348 
	C235.197998,349.719086 236.813141,347.403198 238.468872,345.029144 
	C232.287155,340.144562 230.515778,349.308685 226.147736,348.486664 
	C226.147736,344.517548 226.147736,340.789032 226.147736,337.139832 
	C228.562759,337.471771 231.477829,337.872437 234.953217,338.363098 
	C236.686279,339.343658 237.859039,340.234192 239.365555,341.318298 
	C242.112900,341.641144 244.526474,341.770386 246.940048,341.899658 
z"/>
<path fill="#8172E1" opacity="1.000000" stroke="none" 
	d="
M138.876465,257.742981 
	C142.744797,258.653381 146.803665,259.866608 150.891769,260.971680 
	C154.380768,261.914795 157.868423,263.146973 161.424622,263.447601 
	C163.454910,263.619202 165.621094,262.183167 168.142670,261.330048 
	C168.021500,262.696442 167.916428,263.881317 167.783798,265.377136 
	C170.453201,265.936432 173.132553,266.497833 177.230011,267.356354 
	C175.332886,270.059662 173.878204,272.055298 172.510513,274.108917 
	C171.617462,275.449890 170.850632,276.874969 169.992767,278.623596 
	C169.302658,280.410156 168.647049,281.835480 167.779160,283.888824 
	C166.048569,286.673340 164.530273,288.829803 162.689575,290.969971 
	C161.579651,290.366821 160.792114,289.779907 160.004593,289.193024 
	C163.684784,288.205078 165.513535,286.057831 166.491989,282.095642 
	C167.653778,277.391174 170.261810,273.043915 171.974762,269.151581 
	C161.340729,265.546234 150.210205,261.772583 138.876465,257.742981 
z"/>
<path fill="#7D65FC" opacity="1.000000" stroke="none" 
	d="
M288.001221,321.972748 
	C286.406891,326.794434 284.531128,331.641205 279.147278,333.175903 
	C275.733490,334.149017 272.004669,334.016724 268.346191,333.901794 
	C268.751526,332.471832 269.227814,331.520233 269.704071,330.568604 
	C269.704071,330.568604 269.823334,330.682556 270.121460,330.694519 
	C272.262909,329.436584 274.106201,328.166656 275.949493,326.896729 
	C275.949493,326.896729 275.990936,326.960815 276.333160,326.952515 
	C280.450653,325.287048 284.225952,323.629883 288.001221,321.972748 
z"/>
<path fill="#8371DB" opacity="1.000000" stroke="none" 
	d="
M157.462524,308.285706 
	C158.918213,307.351776 160.759476,306.454987 162.802628,305.290924 
	C164.010010,307.439606 165.727203,309.810608 165.883240,312.280212 
	C166.298096,318.846252 166.039886,325.454773 166.042236,332.852936 
	C166.043015,334.111755 166.050873,334.564087 166.058746,335.016388 
	C166.112900,336.469452 166.167038,337.922485 165.794250,339.739380 
	C164.579849,340.736877 163.792358,341.370544 163.004868,342.004242 
	C163.004868,342.004242 163.000000,342.000000 162.575867,341.999878 
	C159.432037,342.674988 156.712372,343.350250 153.992691,344.025513 
	C153.992691,344.025513 153.496460,343.967133 153.232056,343.659180 
	C152.676086,342.215088 152.384537,341.078918 152.092987,339.942780 
	C154.537521,340.226898 157.360184,341.397980 159.326263,340.559784 
	C161.544479,339.614136 164.393341,336.953583 164.530792,334.877533 
	C165.108292,326.155212 164.774750,317.372559 164.774750,307.928925 
	C161.989670,308.087341 159.918884,308.205109 157.462524,308.285706 
z"/>
<path fill="#7D66F5" opacity="1.000000" stroke="none" 
	d="
M163.011963,290.986267 
	C164.530273,288.829803 166.048569,286.673340 167.772614,284.251221 
	C170.406296,285.384521 173.985291,285.791382 173.090210,290.366913 
	C168.544785,290.818848 165.052750,292.226471 168.196518,298.010803 
	C168.551559,298.664062 167.269943,300.206787 166.213760,302.490784 
	C165.203552,300.159882 164.663269,298.913239 164.202805,297.015198 
	C163.859070,294.571289 163.435516,292.778778 163.011963,290.986267 
z"/>
<path fill="#806EE4" opacity="1.000000" stroke="none" 
	d="
M228.054138,279.252167 
	C227.688919,276.892609 227.539871,274.710571 226.906876,272.679352 
	C224.457397,264.819031 224.399933,264.836945 232.696472,266.622559 
	C231.297409,267.216187 229.586319,267.634399 228.157394,267.983643 
	C230.199432,272.191315 232.154694,276.220154 233.684219,280.623108 
	C231.517365,280.987427 229.776215,280.977570 228.035080,280.967743 
	C228.035080,280.967743 228.008392,280.981995 228.021133,280.733887 
	C228.033875,280.485809 228.031448,279.992401 228.031448,279.992401 
	C228.031448,279.992401 228.048004,279.498962 228.054138,279.252167 
z"/>
<path fill="#7F70CA" opacity="1.000000" stroke="none" 
	d="
M239.031769,341.124756 
	C237.859039,340.234192 236.686279,339.343658 235.288208,338.222351 
	C234.980576,322.979980 234.898270,307.968353 234.832458,292.123352 
	C234.851318,290.549255 234.853683,289.808502 234.997314,288.884033 
	C235.329269,288.457306 235.538406,288.231384 235.765991,288.022522 
	C235.853424,302.430084 235.815979,316.840393 236.137054,331.242767 
	C236.198914,334.017395 237.666107,336.760712 238.735413,340.060181 
	C239.001144,340.776154 239.016464,340.950439 239.031769,341.124756 
z"/>
<path fill="#7E67F5" opacity="1.000000" stroke="none" 
	d="
M122.020119,328.345184 
	C123.812584,328.916595 125.598389,329.867645 127.763443,331.166748 
	C128.764328,331.674622 129.385971,331.834412 130.007599,331.994232 
	C130.809265,331.906921 131.610931,331.819580 132.808899,331.636230 
	C133.205200,331.540222 133.190887,331.611298 133.348618,331.899963 
	C134.308136,332.471680 135.109924,332.754761 135.911713,333.037842 
	C135.911697,333.037842 135.970779,333.006409 136.191162,333.224182 
	C136.931412,333.635864 137.451309,333.829742 137.971207,334.023621 
	C137.971207,334.023621 137.996704,333.998779 137.988800,334.339233 
	C137.988571,335.114838 137.996246,335.549988 138.003937,335.985168 
	C133.214157,338.753204 129.882599,334.267365 125.810791,333.460449 
	C124.628532,333.226166 123.616158,332.134521 122.262924,331.217957 
	C122.004448,330.241608 122.008957,329.483215 122.020119,328.345184 
z"/>
<path fill="#8977DE" opacity="1.000000" stroke="none" 
	d="
M269.349152,330.643066 
	C269.227814,331.520233 268.751526,332.471832 268.099304,333.692627 
	C263.095703,336.082581 258.322876,338.344604 253.411835,340.250488 
	C251.599579,340.953827 249.461716,340.818085 247.150177,340.852997 
	C254.216751,337.333160 261.605499,334.025360 269.349152,330.643066 
z"/>
<path fill="#8977DE" opacity="1.000000" stroke="none" 
	d="
M288.226562,321.965759 
	C284.225952,323.629883 280.450653,325.287048 276.297180,326.939850 
	C282.574066,321.864197 289.229218,316.792847 296.188232,311.588989 
	C294.924805,313.457611 293.345825,315.449829 291.794464,317.463318 
	C290.836853,318.706146 289.921326,319.981445 288.944824,321.596924 
	C288.902802,321.951630 288.451935,321.958801 288.226562,321.965759 
z"/>
<path fill="#7C65F5" opacity="1.000000" stroke="none" 
	d="
M318.212524,295.811096 
	C316.181610,297.901215 315.989227,302.839325 311.403992,299.008362 
	C311.815857,297.164764 312.212128,295.856171 312.608429,294.547607 
	C312.608429,294.547607 312.595184,294.652374 312.916321,294.578613 
	C314.342926,292.741943 315.448364,290.979034 316.553772,289.216095 
	C316.553772,289.216095 316.553955,289.118866 316.906219,288.988037 
	C317.842377,288.582489 318.426270,288.307770 319.010162,288.033081 
	C319.338989,290.084503 319.667816,292.135986 319.996521,294.588867 
	C319.472107,295.199951 318.947876,295.409668 318.212524,295.811096 
z"/>
<path fill="#7F65FB" opacity="1.000000" stroke="none" 
	d="
M224.471054,320.577484 
	C224.265884,315.418884 224.265884,310.564636 224.265884,305.710388 
	C224.968246,305.697662 225.670624,305.684967 226.372986,305.672241 
	C226.372986,310.587402 226.389481,315.502899 226.301620,320.416473 
	C226.298660,320.581238 225.241821,320.727142 224.471054,320.577484 
z"/>
<path fill="#7866FA" opacity="1.000000" stroke="none" 
	d="
M234.856049,289.067780 
	C234.853683,289.808502 234.851318,290.549255 234.795410,291.657867 
	C231.925797,291.965088 230.024429,291.473816 230.402191,287.692352 
	C230.592529,285.786987 228.921310,283.695648 228.063477,281.328064 
	C229.776215,280.977570 231.517365,280.987427 233.696121,281.000061 
	C234.356812,281.489441 234.579895,281.975983 234.607147,283.019287 
	C234.559555,285.406616 234.707794,287.237213 234.856049,289.067780 
z"/>
<path fill="#8777D1" opacity="1.000000" stroke="none" 
	d="
M162.689575,290.969971 
	C163.435516,292.778778 163.859070,294.571289 164.139175,296.683105 
	C162.186172,296.829681 160.376617,296.656891 158.432465,296.035706 
	C158.179077,294.708893 158.060303,293.830505 157.941528,292.952148 
	C157.414825,292.266571 156.888107,291.581024 156.092102,290.680481 
	C156.997726,290.012268 158.172623,289.558990 159.676056,289.149353 
	C160.792114,289.779907 161.579651,290.366821 162.689575,290.969971 
z"/>
<path fill="#8573E3" opacity="1.000000" stroke="none" 
	d="
M138.354477,336.069885 
	C137.996246,335.549988 137.988571,335.114838 137.979980,334.353058 
	C142.498352,335.853912 147.017639,337.681396 151.814972,339.725830 
	C152.384537,341.078918 152.676086,342.215088 152.984070,343.628784 
	C151.546036,343.381409 150.091583,342.856476 148.351379,342.152710 
	C144.945435,340.034149 141.825226,338.094391 138.354477,336.069885 
z"/>
<path fill="#7F66F4" opacity="1.000000" stroke="none" 
	d="
M154.084488,344.362732 
	C156.712372,343.350250 159.432037,342.674988 162.577881,342.003174 
	C159.990845,347.181976 157.557968,347.924255 154.084488,344.362732 
z"/>
<path fill="#7F65FB" opacity="1.000000" stroke="none" 
	d="
M286.384094,334.135223 
	C287.684998,334.218750 288.712921,334.490906 289.740845,334.763031 
	C289.372498,335.608612 289.199127,336.939331 288.589417,337.184357 
	C287.708099,337.538544 286.510590,337.106110 285.447998,337.009277 
	C285.669067,336.114136 285.890106,335.218964 286.384094,334.135223 
z"/>
<path fill="#8977DE" opacity="1.000000" stroke="none" 
	d="
M239.365540,341.318329 
	C239.016464,340.950439 239.001144,340.776154 238.971954,340.339752 
	C241.282288,340.295837 243.606491,340.514069 246.322495,340.707764 
	C246.757721,340.885345 246.801147,341.087433 246.892303,341.594574 
	C244.526474,341.770386 242.112900,341.641144 239.365540,341.318329 
z"/>
<path fill="#7D66F5" opacity="1.000000" stroke="none" 
	d="
M173.910980,295.870605 
	C173.629639,296.552032 173.154648,297.037537 172.679626,297.523010 
	C172.368057,297.036377 172.056488,296.549744 171.744919,296.063110 
	C172.402390,295.933624 173.059845,295.804138 173.910980,295.870605 
z"/>
<path fill="#7F66F4" opacity="1.000000" stroke="none" 
	d="
M163.337814,341.976074 
	C163.792358,341.370544 164.579849,340.736877 165.671021,340.031006 
	C165.206726,340.621887 164.438751,341.284882 163.337814,341.976074 
z"/>
<path fill="#8877D5" opacity="1.000000" stroke="none" 
	d="
M157.763062,293.177490 
	C158.060303,293.830505 158.179077,294.708893 158.125839,295.801666 
	C157.690643,295.842255 157.458710,295.633667 157.121231,295.199341 
	C157.184479,294.473175 157.384521,293.938019 157.763062,293.177490 
z"/>
<path fill="#7F66F4" opacity="1.000000" stroke="none" 
	d="
M166.291504,334.936829 
	C166.050873,334.564087 166.043015,334.111755 166.050690,333.320343 
	C166.218903,333.606567 166.371567,334.231903 166.291504,334.936829 
z"/>
<path fill="#7866FA" opacity="1.000000" stroke="none" 
	d="
M227.933884,280.102478 
	C228.031448,279.992401 228.033875,280.485809 228.031036,280.732361 
	C227.769745,280.763458 227.705780,280.507996 227.933884,280.102478 
z"/>
<path fill="#8074DF" opacity="1.000000" stroke="none" 
	d="
M343.823914,216.911026 
	C343.514893,209.080261 343.490021,200.970551 343.539825,192.438141 
	C344.404510,194.888443 345.443787,197.721970 345.907104,200.646744 
	C346.290588,203.067627 345.994415,205.596191 346.004456,208.544067 
	C345.375702,211.551422 344.741852,214.091751 343.823914,216.911026 
z"/>
<path fill="#6A6AF0" opacity="1.000000" stroke="none" 
	d="
M324.830322,124.727310 
	C323.466339,124.200981 321.920013,123.386520 320.206543,122.276138 
	C321.575592,122.799866 323.111816,123.619522 324.830322,124.727310 
z"/>
<path fill="#8074DF" opacity="1.000000" stroke="none" 
	d="
M328.620300,269.610077 
	C336.064880,253.490204 341.309662,236.733490 343.553528,218.715912 
	C343.905212,219.955566 343.968231,221.503738 344.018616,223.932907 
	C343.652161,227.530807 343.298370,230.247711 342.944580,232.964630 
	C340.654663,240.955734 338.395386,248.955872 336.045654,256.929352 
	C335.639191,258.308594 335.075928,259.756744 334.192230,260.857788 
	C331.883850,263.733887 332.569153,265.788696 335.734131,267.733154 
	C335.304840,269.428558 334.701141,270.857300 333.682190,272.585205 
	C331.718048,271.792908 330.169159,270.701508 328.620300,269.610077 
z"/>
<path fill="#7768F2" opacity="1.000000" stroke="none" 
	d="
M343.317902,232.948029 
	C343.298370,230.247711 343.652161,227.530807 344.023499,224.396271 
	C345.593079,224.586960 347.145081,225.195282 348.697083,225.803589 
	C347.028473,228.179550 345.359863,230.555496 343.317902,232.948029 
z"/>
<path fill="#7A75DB" opacity="1.000000" stroke="none" 
	d="
M72.722565,138.043945 
	C68.507133,151.458344 63.199219,164.762619 59.593163,178.513229 
	C55.844025,192.809448 56.331379,207.615555 58.000603,223.021942 
	C57.895004,224.193222 57.847385,224.634995 57.799767,225.076752 
	C56.871979,223.646133 55.944195,222.215515 55.230473,220.084869 
	C55.631500,217.591797 55.818470,215.798782 56.010742,213.589874 
	C56.003639,211.790955 55.991222,210.407883 55.980915,208.572815 
	C55.974525,205.409744 55.966030,202.698715 55.968536,199.551605 
	C55.984447,197.077988 55.989349,195.040421 55.994255,193.002853 
	C56.982502,185.275925 57.970749,177.548981 58.990425,169.414276 
	C57.168022,160.376495 64.439301,154.906265 66.567902,147.617538 
	C67.571106,144.182404 70.384628,141.275970 72.722565,138.043945 
z"/>
<path fill="#6D69F0" opacity="1.000000" stroke="none" 
	d="
M81.028961,121.004486 
	C77.389870,119.552002 74.091209,119.173134 71.436020,123.030296 
	C70.864212,123.860954 69.058563,123.842270 67.821266,124.214828 
	C67.998932,122.887543 67.718018,121.190765 68.436409,120.299156 
	C71.058434,117.044937 73.997993,114.126015 78.890785,115.361771 
	C79.935005,115.625496 81.147064,115.224670 82.893860,115.063919 
	C83.675964,114.997375 83.845993,114.996902 84.233612,115.293137 
	C84.801743,116.519974 85.152290,117.450111 85.502838,118.380241 
	C85.502838,118.380241 85.516533,118.451607 85.123169,118.379776 
	C83.496185,119.206787 82.262573,120.105637 81.028961,121.004486 
z"/>
<path fill="#6D6AEF" opacity="1.000000" stroke="none" 
	d="
M84.016022,114.996437 
	C83.845993,114.996902 83.675964,114.997375 83.250824,114.998154 
	C85.528313,110.422066 87.849907,105.701225 90.791130,101.404556 
	C91.310684,100.645569 94.416794,101.657166 96.670059,101.932312 
	C95.489517,104.322327 93.967354,106.631142 92.501205,109.314270 
	C92.557228,109.688591 92.530571,109.688118 92.161209,109.609810 
	C91.261711,110.429993 90.731567,111.328484 90.201424,112.226967 
	C90.201424,112.226967 90.114021,112.126175 89.935921,112.289505 
	C89.558800,112.807663 89.359779,113.162491 89.160759,113.517326 
	C89.160759,113.517326 89.093575,113.818748 88.640289,113.882278 
	C86.796684,114.296013 85.406349,114.646225 84.016022,114.996437 
z"/>
<path fill="#7A75DB" opacity="1.000000" stroke="none" 
	d="
M80.916138,121.325790 
	C82.262573,120.105637 83.496185,119.206787 85.091324,118.397278 
	C81.545273,124.692108 77.637688,130.897598 73.453102,137.340256 
	C72.767044,130.854187 75.864937,125.810036 80.916138,121.325790 
z"/>
<path fill="#7766F9" opacity="1.000000" stroke="none" 
	d="
M53.748817,177.003174 
	C53.538578,181.767059 53.078529,186.528625 52.618481,191.290176 
	C51.858318,191.210175 51.098156,191.130173 50.337994,191.050171 
	C50.994747,186.478607 51.651501,181.907059 52.653824,177.166016 
	C52.999390,176.996536 53.499008,177.000854 53.748817,177.003174 
z"/>
<path fill="#6A6AF0" opacity="1.000000" stroke="none" 
	d="
M97.827957,100.223488 
	C97.815536,100.541183 97.605942,101.066238 97.201195,101.800484 
	C97.214287,101.483406 97.422531,100.957123 97.827957,100.223488 
z"/>
<path fill="#7668F3" opacity="1.000000" stroke="none" 
	d="
M56.005432,214.005753 
	C55.818470,215.798782 55.631500,217.591797 55.231136,219.700470 
	C50.781025,216.530487 50.658756,211.784775 51.000130,206.448868 
	C51.651863,204.243027 52.303421,202.485458 53.347610,200.363770 
	C54.479332,199.995667 55.218433,199.991669 55.957531,199.987671 
	C55.966030,202.698715 55.974525,205.409744 55.783211,208.846436 
	C55.724075,211.049973 55.864750,212.527863 56.005432,214.005753 
z"/>
<path fill="#8573E3" opacity="1.000000" stroke="none" 
	d="
M57.887497,225.207031 
	C57.847385,224.634995 57.895004,224.193222 57.967915,223.420990 
	C58.158142,223.818649 58.323082,224.546799 58.427147,225.548279 
	C58.217712,225.674866 58.087360,225.513428 57.887497,225.207031 
z"/>
<path fill="#7766F9" opacity="1.000000" stroke="none" 
	d="
M55.968536,199.551620 
	C55.218433,199.991669 54.479332,199.995667 53.370041,200.000137 
	C53.761082,197.732864 54.522312,195.465118 55.638901,193.100113 
	C55.989349,195.040421 55.984447,197.077988 55.968536,199.551620 
z"/>
<path fill="#7866FA" opacity="1.000000" stroke="none" 
	d="
M328.616486,269.642761 
	C330.169159,270.701508 331.718048,271.792908 333.622009,272.914673 
	C331.085510,277.160553 328.212555,281.389618 325.219147,285.531616 
	C325.121429,285.666809 323.795532,284.914398 323.162537,283.947021 
	C324.503479,279.851837 325.724060,276.385345 326.944641,272.918854 
	C326.944672,272.918854 326.975067,272.980286 327.271698,272.863129 
	C327.933838,271.735809 328.299316,270.725647 328.664795,269.715515 
	C328.664825,269.715515 328.612671,269.675415 328.616486,269.642761 
z"/>
<path fill="#8074DF" opacity="1.000000" stroke="none" 
	d="
M326.683655,273.131958 
	C325.724060,276.385345 324.503479,279.851837 323.137268,283.642029 
	C322.565918,283.998749 322.140167,284.031860 321.356934,283.768646 
	C320.974823,283.255127 320.950226,283.037903 320.925629,282.820679 
	C322.757996,279.662140 324.590363,276.503601 326.683655,273.131958 
z"/>
<path fill="#7866FA" opacity="1.000000" stroke="none" 
	d="
M332.756714,286.818542 
	C333.001343,287.445129 333.000854,287.889038 333.000183,288.665863 
	C331.917908,288.537720 330.835846,288.076660 329.753754,287.615601 
	C330.673035,287.289001 331.592346,286.962433 332.756714,286.818542 
z"/>
<path fill="#8977DE" opacity="1.000000" stroke="none" 
	d="
M320.672729,283.029968 
	C320.950226,283.037903 320.974823,283.255127 321.038086,283.799286 
	C320.441284,284.932007 319.805908,285.737823 318.833801,286.568420 
	C319.138031,285.475250 319.778900,284.357239 320.672729,283.029968 
z"/>
<path fill="#8977DE" opacity="1.000000" stroke="none" 
	d="
M318.875244,287.675507 
	C318.426270,288.307770 317.842377,288.582489 316.953796,288.978088 
	C317.066254,288.401733 317.483429,287.704468 318.140961,286.825195 
	C318.501007,286.868103 318.620697,287.093018 318.875244,287.675507 
z"/>
<path fill="#7567F8" opacity="1.000000" stroke="none" 
	d="
M275.047302,245.006439 
	C273.923126,244.551025 272.798981,244.095596 271.674805,243.640167 
	C272.351135,242.575607 272.863953,241.349350 273.730591,240.472977 
	C278.941101,235.203857 282.088501,228.695694 282.745758,221.570190 
	C283.311188,215.440811 278.125336,209.968811 271.841949,209.383820 
	C267.151581,208.947159 262.339081,209.980713 257.573608,210.141571 
	C253.808563,210.268661 250.031799,210.087173 246.261246,209.999100 
	C243.514771,209.934982 241.597580,210.529083 240.761917,213.747238 
	C240.413361,215.089493 238.191879,216.517685 236.606796,216.836304 
	C234.047470,217.350769 231.219589,217.393845 228.679688,216.838150 
	C226.969452,216.463989 225.543610,214.736771 224.020477,213.575577 
	C222.500366,212.416656 221.072250,210.264862 219.509567,210.174301 
	C208.661240,209.545639 197.785233,209.416672 186.924683,208.967819 
	C181.545578,208.745483 176.536652,209.137161 173.124237,215.176514 
	C168.678146,208.336807 162.537338,212.360886 157.207748,211.504562 
	C153.153671,210.853165 149.079178,210.294983 144.995468,209.871887 
	C141.215363,209.480270 137.411438,209.170441 133.616943,209.158371 
	C132.518402,209.154892 130.816879,210.041748 130.415894,210.965164 
	C128.299057,215.839996 125.967545,214.777084 123.070732,211.725998 
	C122.241570,210.852692 120.737770,210.129807 119.578079,210.177826 
	C117.930573,210.246002 116.315224,211.091003 114.686134,211.604080 
	C115.632225,212.823212 116.372047,214.315170 117.560539,215.213684 
	C122.411949,218.881485 122.491859,225.787796 117.060745,228.536987 
	C109.403259,211.865921 110.339668,194.900406 114.395477,177.821121 
	C114.560493,177.126236 115.441971,176.601471 116.415421,175.998322 
	C118.802750,175.308990 120.764290,174.618805 122.725838,173.928619 
	C121.479103,172.617554 120.232361,171.306503 118.988983,169.747498 
	C118.992348,169.499557 119.006783,169.003830 119.300522,168.882355 
	C121.404861,169.850662 123.156906,171.058029 125.042641,171.996887 
	C126.901764,172.922516 128.876266,174.143219 130.836136,174.212219 
	C133.556656,174.307983 136.305145,173.105133 139.051437,173.060455 
	C150.148041,172.880051 161.248795,172.964447 172.346771,172.840836 
	C173.392654,172.829193 174.421478,172.023209 175.472916,171.624756 
	C177.815491,170.737045 180.134048,169.247498 182.521820,169.120499 
	C189.151672,168.767868 195.811905,168.984512 202.460129,168.979446 
	C209.384537,168.974167 216.309357,169.013962 223.233124,168.946213 
	C225.545609,168.923584 227.860962,168.432358 230.165527,168.496307 
	C238.258636,168.720871 246.559052,168.111710 254.356491,169.790085 
	C258.814941,170.749725 263.046051,172.792801 267.925934,173.254349 
	C272.917572,173.726440 276.162476,173.893631 274.743958,167.415100 
	C278.936432,168.989746 278.936432,168.989746 276.782837,175.058380 
	C276.341400,175.440201 276.117096,175.763611 275.892761,176.087021 
	C276.030334,176.116455 276.260559,176.209503 276.290924,176.165298 
	C276.547943,175.791061 276.768494,175.391769 277.363281,175.025909 
	C279.197571,176.460770 280.858276,177.721298 282.100800,179.309067 
	C284.824585,182.789703 287.336487,186.436188 290.216431,190.039124 
	C290.685822,190.077988 290.873627,190.092682 291.061432,190.107361 
	C291.041931,190.505188 291.022430,190.903030 290.799438,191.954071 
	C290.399017,195.073349 290.017548,197.540695 290.034973,200.005219 
	C290.153442,216.721558 286.672546,232.212936 275.047302,245.006439 
z"/>
<path fill="#7168F3" opacity="1.000000" stroke="none" 
	d="
M277.363281,175.025909 
	C278.936432,168.989746 278.936432,168.989746 274.743958,167.415100 
	C276.162476,173.893631 272.917572,173.726440 267.925934,173.254349 
	C263.046051,172.792801 258.814941,170.749725 254.356491,169.790085 
	C246.559052,168.111710 238.258636,168.720871 230.165527,168.496307 
	C227.860962,168.432358 225.545609,168.923584 223.233124,168.946213 
	C216.309357,169.013962 209.384537,168.974167 202.460129,168.979446 
	C195.811905,168.984512 189.151672,168.767868 182.521820,169.120499 
	C180.134048,169.247498 177.815491,170.737045 175.472916,171.624756 
	C174.421478,172.023209 173.392654,172.829193 172.346771,172.840836 
	C161.248795,172.964447 150.148041,172.880051 139.051437,173.060455 
	C136.305145,173.105133 133.556656,174.307983 130.836136,174.212219 
	C128.876266,174.143219 126.901764,172.922516 125.042641,171.996887 
	C123.156906,171.058029 121.404861,169.850662 119.367081,168.534729 
	C119.825272,167.199280 120.313393,165.881668 121.228615,165.015137 
	C126.433128,160.087463 127.334969,153.946335 126.761566,146.856461 
	C125.353737,147.449570 124.300735,147.893188 122.452164,148.671982 
	C121.118813,139.592880 125.741035,132.066345 126.392120,124.001854 
	C126.436890,123.447304 127.920952,123.008965 128.399612,122.719688 
	C130.220230,124.320511 131.762573,125.676659 133.304932,127.032799 
	C133.541748,126.779152 133.778564,126.525513 134.015381,126.271873 
	C133.607590,125.054382 133.199799,123.836891 132.792007,122.619400 
	C133.102859,122.215233 133.413712,121.811073 133.724564,121.406914 
	C139.999451,124.501915 146.698837,126.967453 152.446915,130.843658 
	C160.496078,136.271622 168.332382,137.872314 177.511078,133.143204 
	C191.847855,133.062195 205.738953,133.036011 219.629715,132.953171 
	C220.758713,132.946442 221.885422,132.552002 223.013184,132.337738 
	C223.540939,132.425186 224.068680,132.512650 225.039978,132.955261 
	C226.045837,133.503662 226.608124,133.696899 227.170425,133.890137 
	C233.561447,136.271622 238.575439,133.485764 244.193558,130.535309 
	C252.189835,126.335968 260.896149,123.420692 269.449158,120.378601 
	C273.636932,118.889114 276.546082,120.419510 277.792419,125.305382 
	C280.303528,135.149231 281.065948,144.905289 278.648682,154.871368 
	C278.232910,156.585419 278.209595,159.134048 279.187988,160.326614 
	C285.440399,167.947556 289.254761,176.579208 290.798523,186.851929 
	C290.367493,188.339737 290.151184,189.177338 289.934906,190.014954 
	C287.336487,186.436188 284.824585,182.789703 282.100800,179.309067 
	C280.858276,177.721298 279.197571,176.460770 277.363281,175.025909 
z"/>
<path fill="#7771E0" opacity="1.000000" stroke="none" 
	d="
M177.065338,133.183411 
	C168.332382,137.872314 160.496078,136.271622 152.446915,130.843658 
	C146.698837,126.967453 139.999451,124.501915 133.724564,121.406914 
	C133.413712,121.811073 133.102859,122.215233 132.792007,122.619400 
	C133.199799,123.836891 133.607590,125.054382 134.015381,126.271873 
	C133.778564,126.525513 133.541748,126.779152 133.304932,127.032799 
	C131.762573,125.676659 130.220230,124.320511 128.399612,122.719688 
	C127.920952,123.008965 126.436890,123.447304 126.392120,124.001854 
	C125.741035,132.066345 121.118813,139.592880 122.452164,148.671982 
	C124.300735,147.893188 125.353737,147.449570 126.761566,146.856461 
	C127.334969,153.946335 126.433128,160.087463 121.228615,165.015137 
	C120.313393,165.881668 119.825272,167.199280 119.073349,168.656204 
	C119.006783,169.003830 118.992348,169.499557 118.666420,169.861404 
	C117.543777,171.822906 116.747063,173.422562 115.527603,175.001450 
	C114.541252,174.945038 113.977646,174.909393 113.414032,174.873749 
	C115.180748,171.506104 116.385437,167.635910 118.843750,164.886703 
	C122.687256,160.588379 123.253433,156.409851 121.864723,150.966324 
	C119.731422,142.604172 120.867470,134.154846 123.223976,125.913971 
	C124.981224,119.768799 126.152275,118.585571 132.435837,120.512756 
	C140.608459,123.019325 148.952774,125.800659 156.230576,130.131699 
	C162.279175,133.731247 167.677628,135.251495 174.940430,133.009949 
	C176.149063,133.097260 176.607193,133.140335 177.065338,133.183411 
z"/>
<path fill="#8172E1" opacity="1.000000" stroke="none" 
	d="
M113.225220,175.152466 
	C113.977646,174.909393 114.541252,174.945038 115.539246,175.245056 
	C115.973633,175.509445 115.989647,175.997452 115.989647,175.997452 
	C115.441971,176.601471 114.560493,177.126236 114.395477,177.821121 
	C110.339668,194.900406 109.403259,211.865921 116.764023,228.758240 
	C117.841408,233.345901 119.069672,237.310684 123.976524,238.824753 
	C124.905991,239.111557 125.920174,240.348755 126.194717,241.341217 
	C128.608170,250.065903 132.122452,252.761841 140.655853,251.700836 
	C139.966202,253.519974 139.362061,255.113602 138.617218,257.086731 
	C125.609795,251.137268 117.613731,240.518967 113.478004,227.228943 
	C108.156303,210.127930 106.409149,192.751480 113.225220,175.152466 
z"/>
<path fill="#8174DF" opacity="1.000000" stroke="none" 
	d="
M274.902557,245.323456 
	C286.672546,232.212936 290.153442,216.721558 290.034973,200.005219 
	C290.017548,197.540695 290.399017,195.073349 290.823425,192.252136 
	C293.024963,213.001709 289.988220,232.656296 274.292084,248.869751 
	C274.241364,247.882141 274.499603,246.761292 274.902557,245.323456 
z"/>
<path fill="#806EE4" opacity="1.000000" stroke="none" 
	d="
M236.442291,266.122833 
	C235.650024,264.503326 235.277054,262.915161 234.619690,260.116028 
	C237.380783,260.551178 240.056351,260.941437 242.719971,261.401001 
	C245.696182,261.914520 249.062500,263.578156 249.955658,258.924927 
	C253.872009,258.340393 257.673889,257.772980 261.897156,257.314453 
	C253.832886,260.333649 245.347229,263.243896 236.442291,266.122833 
M240.065201,263.406372 
	C240.065201,263.406372 239.874390,263.536652 239.874390,263.536652 
	C239.874390,263.536652 240.117355,263.523773 240.065201,263.406372 
z"/>
<path fill="#8877D5" opacity="1.000000" stroke="none" 
	d="
M153.754013,290.690948 
	C153.751297,292.800232 153.410858,294.856476 152.853943,298.220245 
	C150.710022,296.767853 149.063309,295.391327 147.194183,294.462219 
	C145.457306,293.598907 143.493103,292.781952 141.610779,292.738739 
	C139.758667,292.696167 137.883652,293.651520 135.289764,294.371307 
	C135.562271,292.106873 135.767227,290.403778 136.000977,288.333923 
	C141.825302,288.857391 147.620789,289.747650 153.754013,290.690948 
z"/>
<path fill="#837FD7" opacity="1.000000" stroke="none" 
	d="
M177.511078,133.143219 
	C176.607193,133.140335 176.149063,133.097260 175.348602,133.019547 
	C190.677399,129.389114 206.423477,129.596832 222.613556,132.195938 
	C221.885422,132.552002 220.758713,132.946442 219.629715,132.953171 
	C205.738953,133.036011 191.847855,133.062195 177.511078,133.143219 
z"/>
<path fill="#8977DE" opacity="1.000000" stroke="none" 
	d="
M307.637512,300.053101 
	C306.699646,305.925873 302.114166,308.866425 296.895813,311.464844 
	C300.131500,307.642273 303.730804,303.914642 307.637512,300.053101 
z"/>
<path fill="#FBFBF1" opacity="1.000000" stroke="none" 
	d="
M92.240738,261.298767 
	C93.344406,263.957886 94.144089,266.550751 94.943771,269.143585 
	C94.291977,269.292236 93.640190,269.440857 92.988403,269.589508 
	C92.321213,266.878296 87.695312,265.098083 92.240738,261.298767 
z"/>
<path fill="#8174DF" opacity="1.000000" stroke="none" 
	d="
M265.011108,254.022934 
	C267.750305,252.344543 270.489532,250.666153 273.616791,248.986115 
	C271.217255,251.044449 268.429657,253.104416 265.343597,254.893829 
	C265.033783,254.423141 265.022430,254.223038 265.011108,254.022934 
z"/>
<path fill="#806EE4" opacity="1.000000" stroke="none" 
	d="
M264.715668,253.918503 
	C265.022430,254.223038 265.033783,254.423141 265.065094,254.923218 
	C264.405243,255.932877 263.725403,256.642578 262.757812,257.406158 
	C261.847351,255.708038 261.224579,253.956009 260.601807,252.203995 
	C260.860138,251.994553 261.118469,251.785095 261.376801,251.575653 
	C262.391266,252.321793 263.405762,253.067932 264.715668,253.918503 
z"/>
<path fill="#7A75DB" opacity="1.000000" stroke="none" 
	d="
M84.233612,115.293137 
	C85.406349,114.646225 86.796684,114.296013 88.514442,113.971733 
	C87.889008,115.336601 86.936142,116.675545 85.743057,118.197357 
	C85.152290,117.450111 84.801743,116.519974 84.233612,115.293137 
z"/>
<path fill="#8977DE" opacity="1.000000" stroke="none" 
	d="
M275.607544,326.952057 
	C274.106201,328.166656 272.262909,329.436584 270.045227,330.663116 
	C271.535736,329.415619 273.400696,328.211517 275.607544,326.952057 
z"/>
<path fill="#806EE4" opacity="1.000000" stroke="none" 
	d="
M234.997314,288.884033 
	C234.707794,287.237213 234.559555,285.406616 234.589523,283.296631 
	C235.119614,284.442749 235.471481,285.868256 235.794678,287.658142 
	C235.538406,288.231384 235.329269,288.457306 234.997314,288.884033 
z"/>
<path fill="#8977DE" opacity="1.000000" stroke="none" 
	d="
M312.317963,294.692383 
	C312.212128,295.856171 311.815857,297.164764 311.213898,298.738312 
	C310.193848,299.300232 309.379486,299.597137 308.240479,299.922791 
	C309.286377,298.246704 310.656952,296.541962 312.317963,294.692383 
z"/>
<path fill="#8977DE" opacity="1.000000" stroke="none" 
	d="
M316.274902,289.419434 
	C315.448364,290.979034 314.342926,292.741943 312.865784,294.563354 
	C313.661377,292.955505 314.828674,291.289124 316.274902,289.419434 
z"/>
<path fill="#8371DB" opacity="1.000000" stroke="none" 
	d="
M145.496246,308.845825 
	C148.106018,308.629272 151.157043,308.502045 154.556793,308.531616 
	C151.916168,308.770630 148.926834,308.852905 145.496246,308.845825 
z"/>
<path fill="#FBFBF1" opacity="1.000000" stroke="none" 
	d="
M97.893372,268.088074 
	C98.415695,267.945618 98.669022,268.045837 98.997284,268.417023 
	C98.504051,269.129242 97.897247,269.668091 97.290443,270.206940 
	C97.414635,269.548981 97.538826,268.891052 97.893372,268.088074 
z"/>
<path fill="#8174DF" opacity="1.000000" stroke="none" 
	d="
M290.216431,190.039124 
	C290.151184,189.177338 290.367493,188.339737 290.789886,187.248840 
	C291.191681,187.928818 291.387360,188.862106 291.322266,189.951370 
	C290.873627,190.092682 290.685822,190.077988 290.216431,190.039124 
z"/>
<path fill="#8074DF" opacity="1.000000" stroke="none" 
	d="
M328.414459,269.907990 
	C328.299316,270.725647 327.933838,271.735809 327.238098,272.856323 
	C327.326660,272.011261 327.745392,271.055878 328.414459,269.907990 
z"/>
<path fill="#7A75DB" opacity="1.000000" stroke="none" 
	d="
M90.468307,112.096436 
	C90.731567,111.328484 91.261711,110.429993 92.148666,109.602661 
	C91.915390,110.437851 91.325294,111.201881 90.468307,112.096436 
z"/>
<path fill="#8573E3" opacity="1.000000" stroke="none" 
	d="
M135.701447,332.796509 
	C135.109924,332.754761 134.308136,332.471680 133.316650,331.917023 
	C133.915009,331.948700 134.703094,332.251923 135.701447,332.796509 
z"/>
<path fill="#8573E3" opacity="1.000000" stroke="none" 
	d="
M137.765045,333.828094 
	C137.451309,333.829742 136.931412,333.635864 136.201660,333.255951 
	C136.514160,333.257477 137.036530,333.445007 137.765045,333.828094 
z"/>
<path fill="#837FD7" opacity="1.000000" stroke="none" 
	d="
M227.011230,133.611053 
	C226.608124,133.696899 226.045837,133.503662 225.267242,133.101166 
	C225.651321,133.038589 226.251694,133.185272 227.011230,133.611053 
z"/>
<path fill="#7A75DB" opacity="1.000000" stroke="none" 
	d="
M89.431374,113.350189 
	C89.359779,113.162491 89.558800,112.807663 89.987686,112.247437 
	C90.045700,112.422386 89.873840,112.802711 89.431374,113.350189 
z"/>
<path fill="#806EE4" opacity="1.000000" stroke="none" 
	d="
M235.381836,266.373474 
	C235.396469,266.227264 235.586838,266.148865 235.941437,266.068054 
	C235.981277,266.266327 235.798584,266.391541 235.381836,266.373474 
z"/>
<path fill="#8877D5" opacity="1.000000" stroke="none" 
	d="
M155.414093,290.409668 
	C155.601089,290.429352 155.468750,290.843201 155.468750,290.843201 
	C155.468750,290.843201 155.081375,290.819397 154.986984,290.690613 
	C154.892593,290.561798 155.227097,290.389954 155.414093,290.409668 
z"/>
<path fill="#7E65FD" opacity="1.000000" stroke="none" 
	d="
M129.799072,331.803619 
	C129.385971,331.834412 128.764328,331.674622 128.082214,331.274719 
	C128.544647,331.227417 129.067581,331.420227 129.799072,331.803619 
z"/>
<path fill="#7766F9" opacity="1.000000" stroke="none" 
	d="
M56.010742,213.589874 
	C55.864750,212.527863 55.724075,211.049973 55.781101,209.298462 
	C55.991222,210.407883 56.003639,211.790955 56.010742,213.589874 
z"/>
<path fill="#7168F3" opacity="1.000000" stroke="none" 
	d="
M116.415421,175.998322 
	C115.989647,175.997452 115.973633,175.509445 115.961990,175.265839 
	C116.747063,173.422562 117.543777,171.822906 118.663055,170.109344 
	C120.232361,171.306503 121.479103,172.617554 122.725838,173.928619 
	C120.764290,174.618805 118.802750,175.308990 116.415421,175.998322 
z"/>
<path fill="#7168F3" opacity="1.000000" stroke="none" 
	d="
M276.782837,175.058380 
	C276.768494,175.391769 276.547943,175.791061 276.290924,176.165298 
	C276.260559,176.209503 276.030334,176.116455 275.892761,176.087021 
	C276.117096,175.763611 276.341400,175.440201 276.782837,175.058380 
z"/>
<path fill="#7866FA" opacity="1.000000" stroke="none" 
	d="
M240.091278,263.465088 
	C240.117355,263.523773 239.874390,263.536652 239.874390,263.536652 
	C239.874390,263.536652 240.065201,263.406372 240.091278,263.465088 
z"/>
</svg>