<svg version="1.1" id="Layer_1" xmlns="http://www.w3.org/2000/svg" xmlns:xlink="http://www.w3.org/1999/xlink" x="0px" y="0px"
	 width="100%" viewBox="0 0 1024 1024" enable-background="new 0 0 1024 1024" xml:space="preserve">
<path fill="#0A66C2" opacity="1.000000" stroke="none" 
	d="
M473.000000,1025.000000 
	C315.333344,1025.000000 158.166672,1025.000000 1.000000,1025.000000 
	C1.000000,683.666687 1.000000,342.333344 1.000000,1.000000 
	C342.333344,1.000000 683.666687,1.000000 1025.000000,1.000000 
	C1025.000000,342.333344 1025.000000,683.666687 1025.000000,1025.000000 
	C841.166687,1025.000000 657.333313,1025.000000 473.000000,1025.000000 
M475.500000,413.999573 
	C459.078583,413.999573 442.657135,413.999573 426.296387,413.999573 
	C426.296387,539.388611 426.296387,664.111633 426.296387,789.153992 
	C465.643005,789.153992 504.692688,789.153992 544.000366,789.153992 
	C544.000366,786.811096 544.000366,784.821594 544.000366,782.832031 
	C544.000366,718.847778 543.924255,654.863281 544.090515,590.879456 
	C544.112915,582.261536 544.568420,573.496704 546.179077,565.058655 
	C551.101135,539.271790 564.289185,519.421143 589.550232,509.480927 
	C625.723450,495.246735 658.357300,511.868805 666.945557,549.630005 
	C669.865967,562.470337 670.749878,575.998535 670.827759,589.222656 
	C671.207581,653.704529 670.999634,718.189941 670.999634,782.674072 
	C670.999634,784.629639 670.999634,786.585266 670.999634,788.745239 
	C710.495911,788.745239 749.547974,788.745239 789.000366,788.745239 
	C789.000366,786.534668 789.000366,784.573608 789.000366,782.612610 
	C789.000366,706.131409 789.266357,629.648438 788.774719,553.170410 
	C788.677063,537.969849 786.866272,522.541260 783.775818,507.647217 
	C776.616577,473.144196 759.890991,444.146576 729.697021,424.573608 
	C698.142578,404.118774 663.244141,398.415466 626.775208,405.624908 
	C590.395142,412.816772 561.428711,432.009491 541.828857,464.161377 
	C541.337097,464.968048 541.079102,465.917267 540.712097,466.800018 
	C540.153259,466.456909 539.594360,466.113800 539.035522,465.770691 
	C539.035522,448.612671 539.035522,431.454620 539.035522,413.999573 
	C517.768127,413.999573 497.134064,413.999573 475.500000,413.999573 
M354.999969,748.500000 
	C354.999969,637.117615 354.999969,525.735229 354.999969,414.301331 
	C315.397095,414.301331 276.352051,414.301331 237.278473,414.301331 
	C237.278473,539.283997 237.278473,663.965210 237.278473,788.698792 
	C276.602722,788.698792 315.647766,788.698792 354.999969,788.698792 
	C354.999969,775.433289 354.999969,762.466614 354.999969,748.500000 
M347.562500,342.059692 
	C363.541595,324.191315 368.375946,303.248871 363.284088,280.257721 
	C356.205505,248.296051 329.191956,227.990509 295.004608,227.998306 
	C250.403564,228.008453 218.218719,268.596680 228.690781,311.908112 
	C234.958618,337.831146 251.394333,354.790802 276.921906,361.490906 
	C303.445068,368.452301 327.371185,362.518463 347.562500,342.059692 
z"/>
<path fill="#FFFFFF" opacity="1.000000" stroke="none" 
	d="
M476.000000,413.999573 
	C497.134064,413.999573 517.768127,413.999573 539.035522,413.999573 
	C539.035522,431.454620 539.035522,448.612671 539.035522,465.770691 
	C539.594360,466.113800 540.153259,466.456909 540.712097,466.800018 
	C541.079102,465.917267 541.337097,464.968048 541.828857,464.161377 
	C561.428711,432.009491 590.395142,412.816772 626.775208,405.624908 
	C663.244141,398.415466 698.142578,404.118774 729.697021,424.573608 
	C759.890991,444.146576 776.616577,473.144196 783.775818,507.647217 
	C786.866272,522.541260 788.677063,537.969849 788.774719,553.170410 
	C789.266357,629.648438 789.000366,706.131409 789.000366,782.612610 
	C789.000366,784.573608 789.000366,786.534668 789.000366,788.745239 
	C749.547974,788.745239 710.495911,788.745239 670.999634,788.745239 
	C670.999634,786.585266 670.999634,784.629639 670.999634,782.674072 
	C670.999634,718.189941 671.207581,653.704529 670.827759,589.222656 
	C670.749878,575.998535 669.865967,562.470337 666.945557,549.630005 
	C658.357300,511.868805 625.723450,495.246735 589.550232,509.480927 
	C564.289185,519.421143 551.101135,539.271790 546.179077,565.058655 
	C544.568420,573.496704 544.112915,582.261536 544.090515,590.879456 
	C543.924255,654.863281 544.000366,718.847778 544.000366,782.832031 
	C544.000366,784.821594 544.000366,786.811096 544.000366,789.153992 
	C504.692688,789.153992 465.643005,789.153992 426.296387,789.153992 
	C426.296387,664.111633 426.296387,539.388611 426.296387,413.999573 
	C442.657135,413.999573 459.078583,413.999573 476.000000,413.999573 
z"/>
<path fill="#FFFFFF" opacity="1.000000" stroke="none" 
	d="
M354.999969,749.000000 
	C354.999969,762.466614 354.999969,775.433289 354.999969,788.698792 
	C315.647766,788.698792 276.602722,788.698792 237.278473,788.698792 
	C237.278473,663.965210 237.278473,539.283997 237.278473,414.301331 
	C276.352051,414.301331 315.397095,414.301331 354.999969,414.301331 
	C354.999969,525.735229 354.999969,637.117615 354.999969,749.000000 
z"/>
<path fill="#FEFEFF" opacity="1.000000" stroke="none" 
	d="
M347.325623,342.324951 
	C327.371185,362.518463 303.445068,368.452301 276.921906,361.490906 
	C251.394333,354.790802 234.958618,337.831146 228.690781,311.908112 
	C218.218719,268.596680 250.403564,228.008453 295.004608,227.998306 
	C329.191956,227.990509 356.205505,248.296051 363.284088,280.257721 
	C368.375946,303.248871 363.541595,324.191315 347.325623,342.324951 
z"/>
</svg>